<svg width="18" height="18" viewBox="0 0 18 18" fill="none" xmlns="http://www.w3.org/2000/svg">
<path d="M7.5001 14.25C7.32486 14.2503 7.15504 14.1893 7.0201 14.0775C6.86672 13.9503 6.77024 13.7673 6.75195 13.5689C6.73366 13.3705 6.79506 13.173 6.9226 13.02L10.2826 8.99996L7.0426 4.97246C6.91677 4.81751 6.8579 4.6188 6.87902 4.42032C6.90013 4.22184 6.99949 4.03996 7.1551 3.91496C7.31198 3.77693 7.51932 3.7106 7.72718 3.73196C7.93504 3.75331 8.12457 3.86041 8.2501 4.02746L11.8726 8.52746C12.1001 8.80421 12.1001 9.20321 11.8726 9.47996L8.1226 13.98C7.97 14.164 7.73878 14.2643 7.5001 14.25Z" fill="#344054"/>
</svg>
