<svg width="136" height="48" viewBox="0 0 136 48" fill="none" xmlns="http://www.w3.org/2000/svg">
<path d="M30.125 38.25L13.875 47L12 38.25H30.125Z" fill="#A80689"/>
<path d="M134.29 30.0101L1.1272 31.3876L29.0195 18.5305L105.948 15.7754L134.29 30.0101Z" fill="url(#paint0_linear_40024170_29615)"/>
<mask id="path-3-outside-1_40024170_29615" maskUnits="userSpaceOnUse" x="0" y="0" width="136" height="48" fill="black">
<rect fill="white" width="136" height="48"/>
<path d="M37.0896 7.565H40.1521C40.3621 7.565 40.4671 7.6875 40.4146 7.915L38.1396 17.645C38.0871 17.8375 37.9646 17.925 37.7896 17.925H35.4796C35.3046 17.925 35.1821 17.855 35.1296 17.6625L33.7121 12.3425L32.2246 17.6625C32.1721 17.855 32.0496 17.925 31.8746 17.925H29.5646C29.3896 17.925 29.2671 17.8375 29.2146 17.645L26.9396 7.915C26.8871 7.6875 26.9921 7.565 27.2021 7.565H30.3346C30.5271 7.565 30.6496 7.67 30.6846 7.845L31.5071 12.395L32.4346 7.845C32.4696 7.67 32.5746 7.565 32.7671 7.565H34.6571C34.8496 7.565 34.9546 7.67 34.9896 7.845L35.9521 12.395L36.7396 7.845C36.7746 7.67 36.8971 7.565 37.0896 7.565Z"/>
<path d="M45.297 18.17C43.0745 18.17 41.5345 17.3125 40.9395 15.5625C40.8695 15.37 40.957 15.2125 41.167 15.1775L43.6695 14.6875C43.8445 14.6525 43.9845 14.7225 44.072 14.8625C44.282 15.2125 44.6495 15.405 45.0695 15.405C45.507 15.405 45.752 15.2475 45.752 14.95C45.752 14.635 45.4895 14.425 45.017 14.285L44.5795 14.1625C42.1295 13.48 41.2895 12.185 41.2895 10.7325C41.2895 8.6325 42.812 7.32 45.4545 7.32C47.607 7.32 48.867 8.125 49.462 9.87499C49.532 10.0675 49.4445 10.2075 49.2345 10.2425L46.8545 10.6625C46.6795 10.6975 46.557 10.645 46.452 10.4875C46.242 10.2075 45.9795 10.05 45.647 10.05C45.3145 10.05 45.1045 10.2075 45.1045 10.47C45.1045 10.7675 45.3495 10.9775 45.9095 11.135L46.347 11.2575C48.8145 11.94 49.637 13.165 49.637 14.7575C49.637 17.12 47.7995 18.17 45.297 18.17Z"/>
<path d="M47.7866 4.0475H50.4116C50.6041 4.0475 50.7266 4.17 50.7266 4.3625V6.1825C50.7266 6.375 50.5691 6.4975 50.4116 6.4975H44.9166C44.7591 6.4975 44.6016 6.375 44.6016 6.1825V4.66H43.6916C43.4991 4.66 43.3766 4.5375 43.3766 4.345V2.315C43.3766 2.1225 43.4991 2 43.6916 2H46.0366C47.1566 2 47.7866 2.63 47.7866 3.75V4.0475Z"/>
<path d="M55.606 7.32C58.9835 7.32 61.0835 9.4375 61.0835 12.8675C61.0835 16.1575 59.036 18.17 55.6935 18.17C52.5785 18.17 50.5485 16.3325 50.5485 13.4975V12.2025C50.5485 12.01 50.671 11.8875 50.8635 11.8875H55.4485C55.641 11.8875 55.7635 12.01 55.7635 12.2025V13.9175C55.7635 14.11 55.641 14.2325 55.4485 14.2325H54.2235C54.381 14.7925 54.836 15.125 55.4485 15.125C56.446 15.125 57.0585 14.25 57.0585 12.815C57.0585 11.38 56.4285 10.47 55.4135 10.47C54.906 10.47 54.4685 10.6975 54.171 11.1175C54.0485 11.2925 53.9435 11.345 53.7685 11.2925L50.9335 10.5225C50.741 10.47 50.6535 10.3125 50.741 10.12C51.546 8.3175 53.261 7.32 55.606 7.32Z"/>
<path d="M68.9954 18.17C67.7004 18.17 66.7204 17.75 66.0204 16.8925L65.9679 17.6275C65.9504 17.8375 65.8454 17.925 65.6529 17.925H62.9754C62.7829 17.925 62.6604 17.8025 62.6604 17.61V7.88C62.6604 7.67 62.7654 7.565 62.9754 7.565H66.2654C66.4754 7.565 66.5804 7.67 66.5804 7.88V13.1125C66.5804 14.285 66.9304 14.845 67.6829 14.845C68.4529 14.845 68.7154 14.425 68.7154 13.235V7.88C68.7154 7.67 68.8204 7.565 69.0304 7.565H72.3204C72.5304 7.565 72.6354 7.67 72.6354 7.88V14.4425C72.6354 16.805 71.2879 18.17 68.9954 18.17Z"/>
<path d="M78.2807 18.1C75.7257 18.1 74.3083 16.595 74.3083 13.865V11.905C74.3083 9.10499 76.3382 7.32 79.5232 7.32C82.7082 7.32 84.7383 9.10499 84.7383 11.905V17.61C84.7383 17.8025 84.6157 17.925 84.4232 17.925H81.1332C80.9408 17.925 80.8182 17.8025 80.8182 17.61V12.29C80.8182 11.2925 80.3107 10.645 79.5232 10.645C78.7357 10.645 78.2282 11.2925 78.2282 12.29V13.48C78.2282 14.355 78.5432 14.775 79.1732 14.775H79.4883C79.7158 14.775 79.7682 14.8275 79.7682 15.09V17.68C79.7682 17.8725 79.6807 17.9775 79.4883 18.0125C79.2257 18.065 78.9632 18.1 78.2807 18.1Z"/>
<path d="M82.3658 18.905H84.4308C84.6233 18.905 84.7458 19.0275 84.7458 19.22V20.9525C84.7458 22.545 83.4858 23.3675 81.4033 23.3675C79.3733 23.3675 78.3058 22.5975 78.3058 21.0925V21.075H77.5708C77.3783 21.075 77.2558 20.9525 77.2558 20.76V19.22C77.2558 19.0275 77.3783 18.905 77.5708 18.905H80.4758C80.6683 18.905 80.7908 19.0275 80.7908 19.22V20.76C80.7908 21.1975 81.0183 21.46 81.4208 21.46C81.8233 21.46 82.0508 21.1975 82.0508 20.76V19.22C82.0508 19.0275 82.1733 18.905 82.3658 18.905Z"/>
<path d="M90.3808 17.925H87.0908C86.8983 17.925 86.7758 17.8025 86.7758 17.61V7.88C86.7758 7.67 86.8808 7.565 87.0908 7.565H90.3808C90.5908 7.565 90.6958 7.67 90.6958 7.88V17.61C90.6958 17.8025 90.5733 17.925 90.3808 17.925ZM96.0858 17.925H92.7958C92.6033 17.925 92.4808 17.8025 92.4808 17.61V7.88C92.4808 7.67 92.5858 7.565 92.7958 7.565H96.0858C96.2958 7.565 96.4007 7.67 96.4007 7.88V17.61C96.4007 17.8025 96.2783 17.925 96.0858 17.925Z"/>
<path d="M102.979 7.32C105.936 7.32 107.809 9.0875 107.809 11.87V17.61C107.809 17.8025 107.686 17.925 107.494 17.925H104.204C104.011 17.925 103.889 17.8025 103.889 17.61V14.0575H102.856C102.296 14.0575 101.981 14.2325 101.981 14.565C101.981 14.8975 102.244 15.09 102.716 15.09H102.839C103.014 15.09 103.119 15.195 103.119 15.3875V17.6275C103.119 17.82 103.031 17.925 102.874 17.96C102.366 18.0475 101.876 18.1 101.404 18.1C99.2336 18.1 98.0611 16.8925 98.0611 15.1075C98.0611 12.955 99.7586 11.7825 102.891 11.7825H103.889V11.6425C103.889 10.995 103.434 10.575 102.734 10.575C102.226 10.575 101.789 10.8025 101.474 11.2225C101.369 11.38 101.246 11.4325 101.071 11.38L98.2536 10.5225C98.0611 10.47 97.9736 10.3125 98.0611 10.12C98.8311 8.37 100.669 7.32 102.979 7.32Z"/>
<path d="M5.605 40.425H2.315C2.105 40.425 2 40.32 2 40.11V30.38C2 30.1875 2.1225 30.065 2.315 30.065H4.9925C5.185 30.065 5.29 30.1525 5.3075 30.3625L5.36 31.0975C6.06 30.24 7.0575 29.82 8.3525 29.82C10.6975 29.82 12.01 31.185 12.01 33.4425V40.11C12.01 40.32 11.905 40.425 11.695 40.425H8.405C8.195 40.425 8.09 40.32 8.09 40.11V34.79C8.09 33.565 7.7925 33.145 7.04 33.145C6.2525 33.145 5.92 33.775 5.92 34.9125V40.11C5.92 40.32 5.815 40.425 5.605 40.425Z"/>
<path d="M11.6879 41.405C11.8804 41.405 12.0029 41.5275 12.0029 41.72V45.115C12.0029 45.3075 11.8804 45.43 11.6879 45.43H9.15039C8.95789 45.43 8.83539 45.3075 8.83539 45.115V43.82H7.97789C7.78539 43.82 7.66289 43.6975 7.66289 43.505V41.72C7.66289 41.5275 7.78539 41.405 7.97789 41.405H11.6879Z"/>
<path d="M14.3121 30.065H19.2821C22.3271 30.065 24.0071 31.6225 24.0071 34.44V40.11C24.0071 40.3025 23.8846 40.425 23.6921 40.425H20.4021C20.2096 40.425 20.0871 40.3025 20.0871 40.11V34.44C20.0871 33.6875 19.6846 33.32 18.8271 33.32H17.9171V40.11C17.9171 40.3025 17.7946 40.425 17.6021 40.425H14.3121C14.1196 40.425 13.9971 40.3025 13.9971 40.11V30.38C13.9971 30.1875 14.1196 30.065 14.3121 30.065Z"/>
<path d="M30.5099 40.67C28.0249 40.67 26.3274 39.4975 25.7324 37.3975C25.6799 37.205 25.7499 37.065 25.9599 37.0125L29.0574 36.2075C29.2324 36.155 29.3549 36.225 29.4424 36.435C29.6874 37.03 30.0549 37.345 30.5099 37.345C31.2449 37.345 31.7349 36.505 31.7349 35.245C31.7349 33.95 31.2274 33.145 30.4049 33.145C29.8624 33.145 29.4249 33.495 29.1799 34.1425C29.1099 34.335 28.9699 34.4225 28.7774 34.37L25.7499 33.6175C25.5399 33.565 25.4699 33.4075 25.5224 33.215C26.2049 31.0275 27.9899 29.82 30.5274 29.82C33.7474 29.82 35.7599 31.9025 35.7599 35.245C35.7599 38.605 33.7649 40.67 30.5099 40.67Z"/>
<path d="M36.3146 28.9975H31.9746C30.0496 28.9975 28.9646 28.0525 28.9646 26.355V25.3925C28.9646 25.2 29.0871 25.0775 29.2796 25.0775H32.0446C32.2371 25.0775 32.3596 25.2 32.3596 25.3925V25.8125C32.3596 26.18 32.5521 26.3725 32.9196 26.3725H36.3146C36.5071 26.3725 36.6296 26.495 36.6296 26.6875V28.6825C36.6296 28.875 36.5071 28.9975 36.3146 28.9975Z"/>
<path d="M40.911 40.67C38.566 40.67 37.271 39.3225 37.271 37.0825V30.38C37.271 30.17 37.376 30.065 37.586 30.065H40.876C41.086 30.065 41.191 30.17 41.191 30.38V35.735C41.191 36.9425 41.471 37.345 42.2234 37.345C43.011 37.345 43.326 36.7325 43.326 35.6125V30.38C43.326 30.17 43.431 30.065 43.641 30.065H46.931C47.141 30.065 47.2459 30.17 47.2459 30.38V40.11C47.2459 40.3025 47.1235 40.425 46.931 40.425H44.2535C44.061 40.425 43.956 40.3375 43.9385 40.1275L43.886 39.3925C43.186 40.25 42.206 40.67 40.911 40.67Z"/>
<path d="M52.9438 40.425H49.6538C49.4438 40.425 49.3388 40.32 49.3388 40.11V30.38C49.3388 30.1875 49.4613 30.065 49.6538 30.065H52.3313C52.5238 30.065 52.6288 30.1525 52.6463 30.3625L52.6988 31.0975C53.3988 30.24 54.3963 29.82 55.6913 29.82C58.0363 29.82 59.3488 31.185 59.3488 33.4425V40.11C59.3488 40.32 59.2438 40.425 59.0338 40.425H55.7438C55.5338 40.425 55.4288 40.32 55.4288 40.11V34.79C55.4288 33.565 55.1313 33.145 54.3788 33.145C53.5913 33.145 53.2588 33.775 53.2588 34.9125V40.11C53.2588 40.32 53.1538 40.425 52.9438 40.425Z"/>
<path d="M59.0267 41.405C59.2192 41.405 59.3417 41.5275 59.3417 41.72V45.115C59.3417 45.3075 59.2192 45.43 59.0267 45.43H56.4892C56.2967 45.43 56.1742 45.3075 56.1742 45.115V43.82H55.3167C55.1242 43.82 55.0017 43.6975 55.0017 43.505V41.72C55.0017 41.5275 55.1242 41.405 55.3167 41.405H59.0267Z"/>
<path d="M61.6509 30.065H66.6209C69.6659 30.065 71.3459 31.6225 71.3459 34.44V40.11C71.3459 40.3025 71.2234 40.425 71.0309 40.425H67.7409C67.5484 40.425 67.4259 40.3025 67.4259 40.11V34.44C67.4259 33.6875 67.0234 33.32 66.1659 33.32H65.2559V40.11C65.2559 40.3025 65.1334 40.425 64.9409 40.425H61.6509C61.4584 40.425 61.3359 40.3025 61.3359 40.11V30.38C61.3359 30.1875 61.4584 30.065 61.6509 30.065Z"/>
<path d="M76.9738 40.425H73.6838C73.4913 40.425 73.3688 40.3025 73.3688 40.11V30.38C73.3688 30.17 73.4738 30.065 73.6838 30.065H76.9738C77.1838 30.065 77.2888 30.17 77.2888 30.38V40.11C77.2888 40.3025 77.1663 40.425 76.9738 40.425Z"/>
<path d="M83.7761 29.925H89.2886C89.4811 29.925 89.6036 30.0475 89.6036 30.24V32.655C89.6036 32.865 89.4986 32.97 89.2886 32.97H87.9936C88.4311 33.32 88.6936 33.915 88.6936 34.615V40.11C88.6936 40.3025 88.5711 40.425 88.3786 40.425H85.0886C84.8961 40.425 84.7736 40.3025 84.7736 40.11V36.5575H83.7411C83.1811 36.5575 82.8661 36.7325 82.8661 37.065C82.8661 37.3975 83.1286 37.59 83.6011 37.59H83.7236C83.8986 37.59 84.0036 37.695 84.0036 37.8875V40.1275C84.0036 40.32 83.9161 40.425 83.7586 40.46C83.2511 40.5475 82.7611 40.6 82.2886 40.6C80.1186 40.6 78.9461 39.3925 78.9461 37.6075C78.9461 35.455 80.6436 34.2825 83.7761 34.2825H84.7736V34.1425C84.7736 33.4775 84.2836 33.075 83.6186 33.075C83.1111 33.075 82.6736 33.3025 82.3586 33.7225C82.2536 33.88 82.1311 33.9325 81.9561 33.88L79.1386 33.0225C78.9461 32.97 78.8586 32.8125 78.9461 32.62C79.7336 30.8875 81.4486 29.925 83.7761 29.925Z"/>
<path d="M86.5891 26.5475H89.2141C89.4066 26.5475 89.5291 26.67 89.5291 26.8625V28.6825C89.5291 28.875 89.3716 28.9975 89.2141 28.9975H83.7191C83.5616 28.9975 83.4041 28.875 83.4041 28.6825V27.16H82.4941C82.3016 27.16 82.1791 27.0375 82.1791 26.845V24.815C82.1791 24.6225 82.3016 24.5 82.4941 24.5H84.8391C85.9591 24.5 86.5891 25.13 86.5891 26.25V26.5475Z"/>
<path d="M94.368 40.67C92.023 40.67 90.728 39.3225 90.728 37.0825V30.38C90.728 30.17 90.833 30.065 91.043 30.065H94.333C94.543 30.065 94.648 30.17 94.648 30.38V35.735C94.648 36.9425 94.928 37.345 95.6805 37.345C96.4679 37.345 96.783 36.7325 96.783 35.6125V30.38C96.783 30.17 96.888 30.065 97.098 30.065H100.388C100.598 30.065 100.703 30.17 100.703 30.38V40.11C100.703 40.3025 100.58 40.425 100.388 40.425H97.7104C97.518 40.425 97.413 40.3375 97.3955 40.1275L97.343 39.3925C96.643 40.25 95.663 40.67 94.368 40.67Z"/>
<path d="M106.401 40.425H103.111C102.901 40.425 102.796 40.32 102.796 40.11V30.38C102.796 30.1875 102.918 30.065 103.111 30.065H105.788C105.981 30.065 106.086 30.1525 106.103 30.3625L106.156 31.0975C106.856 30.24 107.853 29.82 109.148 29.82C111.493 29.82 112.806 31.185 112.806 33.4425V40.11C112.806 40.32 112.701 40.425 112.491 40.425H109.201C108.991 40.425 108.886 40.32 108.886 40.11V34.79C108.886 33.565 108.588 33.145 107.836 33.145C107.048 33.145 106.716 33.775 106.716 34.9125V40.11C106.716 40.32 106.611 40.425 106.401 40.425Z"/>
<path d="M122.073 40.425H118.783C118.59 40.425 118.468 40.3025 118.468 40.11V33.88C118.468 33.425 118.258 33.145 117.908 33.145C117.698 33.145 117.54 33.25 117.418 33.4775C117.313 33.67 117.208 33.74 117.015 33.6875L114.233 32.935C114.023 32.8825 113.953 32.725 114.005 32.55C114.565 30.8875 116.228 29.82 118.258 29.82C120.778 29.82 122.388 31.5 122.388 34.125V40.11C122.388 40.3025 122.265 40.425 122.073 40.425Z"/>
<path d="M130.225 29.89C132.43 29.89 133.97 31.9375 133.97 34.8775C133.97 37.3625 132.833 39.305 130.803 40.3375C130.68 40.4075 130.558 40.425 130.4 40.425H126.585C126.41 40.425 126.288 40.3375 126.235 40.145L123.523 30.415C123.453 30.1875 123.593 30.065 123.803 30.065H127.04C127.215 30.065 127.338 30.17 127.39 30.345L129.123 37.24C129.77 36.75 130.085 36.015 130.085 34.9825C130.085 33.8275 129.718 33.215 129.035 33.215C128.948 33.215 128.86 33.2325 128.773 33.2325C128.633 33.2325 128.545 33.1275 128.545 32.97V30.45C128.545 30.2225 128.633 30.135 128.843 30.065C129.245 29.9425 129.7 29.89 130.225 29.89Z"/>
</mask>
<path d="M37.0896 7.565H40.1521C40.3621 7.565 40.4671 7.6875 40.4146 7.915L38.1396 17.645C38.0871 17.8375 37.9646 17.925 37.7896 17.925H35.4796C35.3046 17.925 35.1821 17.855 35.1296 17.6625L33.7121 12.3425L32.2246 17.6625C32.1721 17.855 32.0496 17.925 31.8746 17.925H29.5646C29.3896 17.925 29.2671 17.8375 29.2146 17.645L26.9396 7.915C26.8871 7.6875 26.9921 7.565 27.2021 7.565H30.3346C30.5271 7.565 30.6496 7.67 30.6846 7.845L31.5071 12.395L32.4346 7.845C32.4696 7.67 32.5746 7.565 32.7671 7.565H34.6571C34.8496 7.565 34.9546 7.67 34.9896 7.845L35.9521 12.395L36.7396 7.845C36.7746 7.67 36.8971 7.565 37.0896 7.565Z" fill="white"/>
<path d="M45.297 18.17C43.0745 18.17 41.5345 17.3125 40.9395 15.5625C40.8695 15.37 40.957 15.2125 41.167 15.1775L43.6695 14.6875C43.8445 14.6525 43.9845 14.7225 44.072 14.8625C44.282 15.2125 44.6495 15.405 45.0695 15.405C45.507 15.405 45.752 15.2475 45.752 14.95C45.752 14.635 45.4895 14.425 45.017 14.285L44.5795 14.1625C42.1295 13.48 41.2895 12.185 41.2895 10.7325C41.2895 8.6325 42.812 7.32 45.4545 7.32C47.607 7.32 48.867 8.125 49.462 9.87499C49.532 10.0675 49.4445 10.2075 49.2345 10.2425L46.8545 10.6625C46.6795 10.6975 46.557 10.645 46.452 10.4875C46.242 10.2075 45.9795 10.05 45.647 10.05C45.3145 10.05 45.1045 10.2075 45.1045 10.47C45.1045 10.7675 45.3495 10.9775 45.9095 11.135L46.347 11.2575C48.8145 11.94 49.637 13.165 49.637 14.7575C49.637 17.12 47.7995 18.17 45.297 18.17Z" fill="white"/>
<path d="M47.7866 4.0475H50.4116C50.6041 4.0475 50.7266 4.17 50.7266 4.3625V6.1825C50.7266 6.375 50.5691 6.4975 50.4116 6.4975H44.9166C44.7591 6.4975 44.6016 6.375 44.6016 6.1825V4.66H43.6916C43.4991 4.66 43.3766 4.5375 43.3766 4.345V2.315C43.3766 2.1225 43.4991 2 43.6916 2H46.0366C47.1566 2 47.7866 2.63 47.7866 3.75V4.0475Z" fill="white"/>
<path d="M55.606 7.32C58.9835 7.32 61.0835 9.4375 61.0835 12.8675C61.0835 16.1575 59.036 18.17 55.6935 18.17C52.5785 18.17 50.5485 16.3325 50.5485 13.4975V12.2025C50.5485 12.01 50.671 11.8875 50.8635 11.8875H55.4485C55.641 11.8875 55.7635 12.01 55.7635 12.2025V13.9175C55.7635 14.11 55.641 14.2325 55.4485 14.2325H54.2235C54.381 14.7925 54.836 15.125 55.4485 15.125C56.446 15.125 57.0585 14.25 57.0585 12.815C57.0585 11.38 56.4285 10.47 55.4135 10.47C54.906 10.47 54.4685 10.6975 54.171 11.1175C54.0485 11.2925 53.9435 11.345 53.7685 11.2925L50.9335 10.5225C50.741 10.47 50.6535 10.3125 50.741 10.12C51.546 8.3175 53.261 7.32 55.606 7.32Z" fill="white"/>
<path d="M68.9954 18.17C67.7004 18.17 66.7204 17.75 66.0204 16.8925L65.9679 17.6275C65.9504 17.8375 65.8454 17.925 65.6529 17.925H62.9754C62.7829 17.925 62.6604 17.8025 62.6604 17.61V7.88C62.6604 7.67 62.7654 7.565 62.9754 7.565H66.2654C66.4754 7.565 66.5804 7.67 66.5804 7.88V13.1125C66.5804 14.285 66.9304 14.845 67.6829 14.845C68.4529 14.845 68.7154 14.425 68.7154 13.235V7.88C68.7154 7.67 68.8204 7.565 69.0304 7.565H72.3204C72.5304 7.565 72.6354 7.67 72.6354 7.88V14.4425C72.6354 16.805 71.2879 18.17 68.9954 18.17Z" fill="white"/>
<path d="M78.2807 18.1C75.7257 18.1 74.3083 16.595 74.3083 13.865V11.905C74.3083 9.10499 76.3382 7.32 79.5232 7.32C82.7082 7.32 84.7383 9.10499 84.7383 11.905V17.61C84.7383 17.8025 84.6157 17.925 84.4232 17.925H81.1332C80.9408 17.925 80.8182 17.8025 80.8182 17.61V12.29C80.8182 11.2925 80.3107 10.645 79.5232 10.645C78.7357 10.645 78.2282 11.2925 78.2282 12.29V13.48C78.2282 14.355 78.5432 14.775 79.1732 14.775H79.4883C79.7158 14.775 79.7682 14.8275 79.7682 15.09V17.68C79.7682 17.8725 79.6807 17.9775 79.4883 18.0125C79.2257 18.065 78.9632 18.1 78.2807 18.1Z" fill="white"/>
<path d="M82.3658 18.905H84.4308C84.6233 18.905 84.7458 19.0275 84.7458 19.22V20.9525C84.7458 22.545 83.4858 23.3675 81.4033 23.3675C79.3733 23.3675 78.3058 22.5975 78.3058 21.0925V21.075H77.5708C77.3783 21.075 77.2558 20.9525 77.2558 20.76V19.22C77.2558 19.0275 77.3783 18.905 77.5708 18.905H80.4758C80.6683 18.905 80.7908 19.0275 80.7908 19.22V20.76C80.7908 21.1975 81.0183 21.46 81.4208 21.46C81.8233 21.46 82.0508 21.1975 82.0508 20.76V19.22C82.0508 19.0275 82.1733 18.905 82.3658 18.905Z" fill="white"/>
<path d="M90.3808 17.925H87.0908C86.8983 17.925 86.7758 17.8025 86.7758 17.61V7.88C86.7758 7.67 86.8808 7.565 87.0908 7.565H90.3808C90.5908 7.565 90.6958 7.67 90.6958 7.88V17.61C90.6958 17.8025 90.5733 17.925 90.3808 17.925ZM96.0858 17.925H92.7958C92.6033 17.925 92.4808 17.8025 92.4808 17.61V7.88C92.4808 7.67 92.5858 7.565 92.7958 7.565H96.0858C96.2958 7.565 96.4007 7.67 96.4007 7.88V17.61C96.4007 17.8025 96.2783 17.925 96.0858 17.925Z" fill="white"/>
<path d="M102.979 7.32C105.936 7.32 107.809 9.0875 107.809 11.87V17.61C107.809 17.8025 107.686 17.925 107.494 17.925H104.204C104.011 17.925 103.889 17.8025 103.889 17.61V14.0575H102.856C102.296 14.0575 101.981 14.2325 101.981 14.565C101.981 14.8975 102.244 15.09 102.716 15.09H102.839C103.014 15.09 103.119 15.195 103.119 15.3875V17.6275C103.119 17.82 103.031 17.925 102.874 17.96C102.366 18.0475 101.876 18.1 101.404 18.1C99.2336 18.1 98.0611 16.8925 98.0611 15.1075C98.0611 12.955 99.7586 11.7825 102.891 11.7825H103.889V11.6425C103.889 10.995 103.434 10.575 102.734 10.575C102.226 10.575 101.789 10.8025 101.474 11.2225C101.369 11.38 101.246 11.4325 101.071 11.38L98.2536 10.5225C98.0611 10.47 97.9736 10.3125 98.0611 10.12C98.8311 8.37 100.669 7.32 102.979 7.32Z" fill="white"/>
<path d="M5.605 40.425H2.315C2.105 40.425 2 40.32 2 40.11V30.38C2 30.1875 2.1225 30.065 2.315 30.065H4.9925C5.185 30.065 5.29 30.1525 5.3075 30.3625L5.36 31.0975C6.06 30.24 7.0575 29.82 8.3525 29.82C10.6975 29.82 12.01 31.185 12.01 33.4425V40.11C12.01 40.32 11.905 40.425 11.695 40.425H8.405C8.195 40.425 8.09 40.32 8.09 40.11V34.79C8.09 33.565 7.7925 33.145 7.04 33.145C6.2525 33.145 5.92 33.775 5.92 34.9125V40.11C5.92 40.32 5.815 40.425 5.605 40.425Z" fill="white"/>
<path d="M11.6879 41.405C11.8804 41.405 12.0029 41.5275 12.0029 41.72V45.115C12.0029 45.3075 11.8804 45.43 11.6879 45.43H9.15039C8.95789 45.43 8.83539 45.3075 8.83539 45.115V43.82H7.97789C7.78539 43.82 7.66289 43.6975 7.66289 43.505V41.72C7.66289 41.5275 7.78539 41.405 7.97789 41.405H11.6879Z" fill="white"/>
<path d="M14.3121 30.065H19.2821C22.3271 30.065 24.0071 31.6225 24.0071 34.44V40.11C24.0071 40.3025 23.8846 40.425 23.6921 40.425H20.4021C20.2096 40.425 20.0871 40.3025 20.0871 40.11V34.44C20.0871 33.6875 19.6846 33.32 18.8271 33.32H17.9171V40.11C17.9171 40.3025 17.7946 40.425 17.6021 40.425H14.3121C14.1196 40.425 13.9971 40.3025 13.9971 40.11V30.38C13.9971 30.1875 14.1196 30.065 14.3121 30.065Z" fill="white"/>
<path d="M30.5099 40.67C28.0249 40.67 26.3274 39.4975 25.7324 37.3975C25.6799 37.205 25.7499 37.065 25.9599 37.0125L29.0574 36.2075C29.2324 36.155 29.3549 36.225 29.4424 36.435C29.6874 37.03 30.0549 37.345 30.5099 37.345C31.2449 37.345 31.7349 36.505 31.7349 35.245C31.7349 33.95 31.2274 33.145 30.4049 33.145C29.8624 33.145 29.4249 33.495 29.1799 34.1425C29.1099 34.335 28.9699 34.4225 28.7774 34.37L25.7499 33.6175C25.5399 33.565 25.4699 33.4075 25.5224 33.215C26.2049 31.0275 27.9899 29.82 30.5274 29.82C33.7474 29.82 35.7599 31.9025 35.7599 35.245C35.7599 38.605 33.7649 40.67 30.5099 40.67Z" fill="white"/>
<path d="M36.3146 28.9975H31.9746C30.0496 28.9975 28.9646 28.0525 28.9646 26.355V25.3925C28.9646 25.2 29.0871 25.0775 29.2796 25.0775H32.0446C32.2371 25.0775 32.3596 25.2 32.3596 25.3925V25.8125C32.3596 26.18 32.5521 26.3725 32.9196 26.3725H36.3146C36.5071 26.3725 36.6296 26.495 36.6296 26.6875V28.6825C36.6296 28.875 36.5071 28.9975 36.3146 28.9975Z" fill="white"/>
<path d="M40.911 40.67C38.566 40.67 37.271 39.3225 37.271 37.0825V30.38C37.271 30.17 37.376 30.065 37.586 30.065H40.876C41.086 30.065 41.191 30.17 41.191 30.38V35.735C41.191 36.9425 41.471 37.345 42.2234 37.345C43.011 37.345 43.326 36.7325 43.326 35.6125V30.38C43.326 30.17 43.431 30.065 43.641 30.065H46.931C47.141 30.065 47.2459 30.17 47.2459 30.38V40.11C47.2459 40.3025 47.1235 40.425 46.931 40.425H44.2535C44.061 40.425 43.956 40.3375 43.9385 40.1275L43.886 39.3925C43.186 40.25 42.206 40.67 40.911 40.67Z" fill="white"/>
<path d="M52.9438 40.425H49.6538C49.4438 40.425 49.3388 40.32 49.3388 40.11V30.38C49.3388 30.1875 49.4613 30.065 49.6538 30.065H52.3313C52.5238 30.065 52.6288 30.1525 52.6463 30.3625L52.6988 31.0975C53.3988 30.24 54.3963 29.82 55.6913 29.82C58.0363 29.82 59.3488 31.185 59.3488 33.4425V40.11C59.3488 40.32 59.2438 40.425 59.0338 40.425H55.7438C55.5338 40.425 55.4288 40.32 55.4288 40.11V34.79C55.4288 33.565 55.1313 33.145 54.3788 33.145C53.5913 33.145 53.2588 33.775 53.2588 34.9125V40.11C53.2588 40.32 53.1538 40.425 52.9438 40.425Z" fill="white"/>
<path d="M59.0267 41.405C59.2192 41.405 59.3417 41.5275 59.3417 41.72V45.115C59.3417 45.3075 59.2192 45.43 59.0267 45.43H56.4892C56.2967 45.43 56.1742 45.3075 56.1742 45.115V43.82H55.3167C55.1242 43.82 55.0017 43.6975 55.0017 43.505V41.72C55.0017 41.5275 55.1242 41.405 55.3167 41.405H59.0267Z" fill="white"/>
<path d="M61.6509 30.065H66.6209C69.6659 30.065 71.3459 31.6225 71.3459 34.44V40.11C71.3459 40.3025 71.2234 40.425 71.0309 40.425H67.7409C67.5484 40.425 67.4259 40.3025 67.4259 40.11V34.44C67.4259 33.6875 67.0234 33.32 66.1659 33.32H65.2559V40.11C65.2559 40.3025 65.1334 40.425 64.9409 40.425H61.6509C61.4584 40.425 61.3359 40.3025 61.3359 40.11V30.38C61.3359 30.1875 61.4584 30.065 61.6509 30.065Z" fill="white"/>
<path d="M76.9738 40.425H73.6838C73.4913 40.425 73.3688 40.3025 73.3688 40.11V30.38C73.3688 30.17 73.4738 30.065 73.6838 30.065H76.9738C77.1838 30.065 77.2888 30.17 77.2888 30.38V40.11C77.2888 40.3025 77.1663 40.425 76.9738 40.425Z" fill="white"/>
<path d="M83.7761 29.925H89.2886C89.4811 29.925 89.6036 30.0475 89.6036 30.24V32.655C89.6036 32.865 89.4986 32.97 89.2886 32.97H87.9936C88.4311 33.32 88.6936 33.915 88.6936 34.615V40.11C88.6936 40.3025 88.5711 40.425 88.3786 40.425H85.0886C84.8961 40.425 84.7736 40.3025 84.7736 40.11V36.5575H83.7411C83.1811 36.5575 82.8661 36.7325 82.8661 37.065C82.8661 37.3975 83.1286 37.59 83.6011 37.59H83.7236C83.8986 37.59 84.0036 37.695 84.0036 37.8875V40.1275C84.0036 40.32 83.9161 40.425 83.7586 40.46C83.2511 40.5475 82.7611 40.6 82.2886 40.6C80.1186 40.6 78.9461 39.3925 78.9461 37.6075C78.9461 35.455 80.6436 34.2825 83.7761 34.2825H84.7736V34.1425C84.7736 33.4775 84.2836 33.075 83.6186 33.075C83.1111 33.075 82.6736 33.3025 82.3586 33.7225C82.2536 33.88 82.1311 33.9325 81.9561 33.88L79.1386 33.0225C78.9461 32.97 78.8586 32.8125 78.9461 32.62C79.7336 30.8875 81.4486 29.925 83.7761 29.925Z" fill="white"/>
<path d="M86.5891 26.5475H89.2141C89.4066 26.5475 89.5291 26.67 89.5291 26.8625V28.6825C89.5291 28.875 89.3716 28.9975 89.2141 28.9975H83.7191C83.5616 28.9975 83.4041 28.875 83.4041 28.6825V27.16H82.4941C82.3016 27.16 82.1791 27.0375 82.1791 26.845V24.815C82.1791 24.6225 82.3016 24.5 82.4941 24.5H84.8391C85.9591 24.5 86.5891 25.13 86.5891 26.25V26.5475Z" fill="white"/>
<path d="M94.368 40.67C92.023 40.67 90.728 39.3225 90.728 37.0825V30.38C90.728 30.17 90.833 30.065 91.043 30.065H94.333C94.543 30.065 94.648 30.17 94.648 30.38V35.735C94.648 36.9425 94.928 37.345 95.6805 37.345C96.4679 37.345 96.783 36.7325 96.783 35.6125V30.38C96.783 30.17 96.888 30.065 97.098 30.065H100.388C100.598 30.065 100.703 30.17 100.703 30.38V40.11C100.703 40.3025 100.58 40.425 100.388 40.425H97.7104C97.518 40.425 97.413 40.3375 97.3955 40.1275L97.343 39.3925C96.643 40.25 95.663 40.67 94.368 40.67Z" fill="white"/>
<path d="M106.401 40.425H103.111C102.901 40.425 102.796 40.32 102.796 40.11V30.38C102.796 30.1875 102.918 30.065 103.111 30.065H105.788C105.981 30.065 106.086 30.1525 106.103 30.3625L106.156 31.0975C106.856 30.24 107.853 29.82 109.148 29.82C111.493 29.82 112.806 31.185 112.806 33.4425V40.11C112.806 40.32 112.701 40.425 112.491 40.425H109.201C108.991 40.425 108.886 40.32 108.886 40.11V34.79C108.886 33.565 108.588 33.145 107.836 33.145C107.048 33.145 106.716 33.775 106.716 34.9125V40.11C106.716 40.32 106.611 40.425 106.401 40.425Z" fill="white"/>
<path d="M122.073 40.425H118.783C118.59 40.425 118.468 40.3025 118.468 40.11V33.88C118.468 33.425 118.258 33.145 117.908 33.145C117.698 33.145 117.54 33.25 117.418 33.4775C117.313 33.67 117.208 33.74 117.015 33.6875L114.233 32.935C114.023 32.8825 113.953 32.725 114.005 32.55C114.565 30.8875 116.228 29.82 118.258 29.82C120.778 29.82 122.388 31.5 122.388 34.125V40.11C122.388 40.3025 122.265 40.425 122.073 40.425Z" fill="white"/>
<path d="M130.225 29.89C132.43 29.89 133.97 31.9375 133.97 34.8775C133.97 37.3625 132.833 39.305 130.803 40.3375C130.68 40.4075 130.558 40.425 130.4 40.425H126.585C126.41 40.425 126.288 40.3375 126.235 40.145L123.523 30.415C123.453 30.1875 123.593 30.065 123.803 30.065H127.04C127.215 30.065 127.338 30.17 127.39 30.345L129.123 37.24C129.77 36.75 130.085 36.015 130.085 34.9825C130.085 33.8275 129.718 33.215 129.035 33.215C128.948 33.215 128.86 33.2325 128.773 33.2325C128.633 33.2325 128.545 33.1275 128.545 32.97V30.45C128.545 30.2225 128.633 30.135 128.843 30.065C129.245 29.9425 129.7 29.89 130.225 29.89Z" fill="white"/>
<path d="M37.0896 7.565H40.1521C40.3621 7.565 40.4671 7.6875 40.4146 7.915L38.1396 17.645C38.0871 17.8375 37.9646 17.925 37.7896 17.925H35.4796C35.3046 17.925 35.1821 17.855 35.1296 17.6625L33.7121 12.3425L32.2246 17.6625C32.1721 17.855 32.0496 17.925 31.8746 17.925H29.5646C29.3896 17.925 29.2671 17.8375 29.2146 17.645L26.9396 7.915C26.8871 7.6875 26.9921 7.565 27.2021 7.565H30.3346C30.5271 7.565 30.6496 7.67 30.6846 7.845L31.5071 12.395L32.4346 7.845C32.4696 7.67 32.5746 7.565 32.7671 7.565H34.6571C34.8496 7.565 34.9546 7.67 34.9896 7.845L35.9521 12.395L36.7396 7.845C36.7746 7.67 36.8971 7.565 37.0896 7.565Z" stroke="#CF07AA" stroke-width="4" mask="url(#path-3-outside-1_40024170_29615)"/>
<path d="M45.297 18.17C43.0745 18.17 41.5345 17.3125 40.9395 15.5625C40.8695 15.37 40.957 15.2125 41.167 15.1775L43.6695 14.6875C43.8445 14.6525 43.9845 14.7225 44.072 14.8625C44.282 15.2125 44.6495 15.405 45.0695 15.405C45.507 15.405 45.752 15.2475 45.752 14.95C45.752 14.635 45.4895 14.425 45.017 14.285L44.5795 14.1625C42.1295 13.48 41.2895 12.185 41.2895 10.7325C41.2895 8.6325 42.812 7.32 45.4545 7.32C47.607 7.32 48.867 8.125 49.462 9.87499C49.532 10.0675 49.4445 10.2075 49.2345 10.2425L46.8545 10.6625C46.6795 10.6975 46.557 10.645 46.452 10.4875C46.242 10.2075 45.9795 10.05 45.647 10.05C45.3145 10.05 45.1045 10.2075 45.1045 10.47C45.1045 10.7675 45.3495 10.9775 45.9095 11.135L46.347 11.2575C48.8145 11.94 49.637 13.165 49.637 14.7575C49.637 17.12 47.7995 18.17 45.297 18.17Z" stroke="#CF07AA" stroke-width="4" mask="url(#path-3-outside-1_40024170_29615)"/>
<path d="M47.7866 4.0475H50.4116C50.6041 4.0475 50.7266 4.17 50.7266 4.3625V6.1825C50.7266 6.375 50.5691 6.4975 50.4116 6.4975H44.9166C44.7591 6.4975 44.6016 6.375 44.6016 6.1825V4.66H43.6916C43.4991 4.66 43.3766 4.5375 43.3766 4.345V2.315C43.3766 2.1225 43.4991 2 43.6916 2H46.0366C47.1566 2 47.7866 2.63 47.7866 3.75V4.0475Z" stroke="#CF07AA" stroke-width="4" mask="url(#path-3-outside-1_40024170_29615)"/>
<path d="M55.606 7.32C58.9835 7.32 61.0835 9.4375 61.0835 12.8675C61.0835 16.1575 59.036 18.17 55.6935 18.17C52.5785 18.17 50.5485 16.3325 50.5485 13.4975V12.2025C50.5485 12.01 50.671 11.8875 50.8635 11.8875H55.4485C55.641 11.8875 55.7635 12.01 55.7635 12.2025V13.9175C55.7635 14.11 55.641 14.2325 55.4485 14.2325H54.2235C54.381 14.7925 54.836 15.125 55.4485 15.125C56.446 15.125 57.0585 14.25 57.0585 12.815C57.0585 11.38 56.4285 10.47 55.4135 10.47C54.906 10.47 54.4685 10.6975 54.171 11.1175C54.0485 11.2925 53.9435 11.345 53.7685 11.2925L50.9335 10.5225C50.741 10.47 50.6535 10.3125 50.741 10.12C51.546 8.3175 53.261 7.32 55.606 7.32Z" stroke="#CF07AA" stroke-width="4" mask="url(#path-3-outside-1_40024170_29615)"/>
<path d="M68.9954 18.17C67.7004 18.17 66.7204 17.75 66.0204 16.8925L65.9679 17.6275C65.9504 17.8375 65.8454 17.925 65.6529 17.925H62.9754C62.7829 17.925 62.6604 17.8025 62.6604 17.61V7.88C62.6604 7.67 62.7654 7.565 62.9754 7.565H66.2654C66.4754 7.565 66.5804 7.67 66.5804 7.88V13.1125C66.5804 14.285 66.9304 14.845 67.6829 14.845C68.4529 14.845 68.7154 14.425 68.7154 13.235V7.88C68.7154 7.67 68.8204 7.565 69.0304 7.565H72.3204C72.5304 7.565 72.6354 7.67 72.6354 7.88V14.4425C72.6354 16.805 71.2879 18.17 68.9954 18.17Z" stroke="#CF07AA" stroke-width="4" mask="url(#path-3-outside-1_40024170_29615)"/>
<path d="M78.2807 18.1C75.7257 18.1 74.3083 16.595 74.3083 13.865V11.905C74.3083 9.10499 76.3382 7.32 79.5232 7.32C82.7082 7.32 84.7383 9.10499 84.7383 11.905V17.61C84.7383 17.8025 84.6157 17.925 84.4232 17.925H81.1332C80.9408 17.925 80.8182 17.8025 80.8182 17.61V12.29C80.8182 11.2925 80.3107 10.645 79.5232 10.645C78.7357 10.645 78.2282 11.2925 78.2282 12.29V13.48C78.2282 14.355 78.5432 14.775 79.1732 14.775H79.4883C79.7158 14.775 79.7682 14.8275 79.7682 15.09V17.68C79.7682 17.8725 79.6807 17.9775 79.4883 18.0125C79.2257 18.065 78.9632 18.1 78.2807 18.1Z" stroke="#CF07AA" stroke-width="4" mask="url(#path-3-outside-1_40024170_29615)"/>
<path d="M82.3658 18.905H84.4308C84.6233 18.905 84.7458 19.0275 84.7458 19.22V20.9525C84.7458 22.545 83.4858 23.3675 81.4033 23.3675C79.3733 23.3675 78.3058 22.5975 78.3058 21.0925V21.075H77.5708C77.3783 21.075 77.2558 20.9525 77.2558 20.76V19.22C77.2558 19.0275 77.3783 18.905 77.5708 18.905H80.4758C80.6683 18.905 80.7908 19.0275 80.7908 19.22V20.76C80.7908 21.1975 81.0183 21.46 81.4208 21.46C81.8233 21.46 82.0508 21.1975 82.0508 20.76V19.22C82.0508 19.0275 82.1733 18.905 82.3658 18.905Z" stroke="#CF07AA" stroke-width="4" mask="url(#path-3-outside-1_40024170_29615)"/>
<path d="M90.3808 17.925H87.0908C86.8983 17.925 86.7758 17.8025 86.7758 17.61V7.88C86.7758 7.67 86.8808 7.565 87.0908 7.565H90.3808C90.5908 7.565 90.6958 7.67 90.6958 7.88V17.61C90.6958 17.8025 90.5733 17.925 90.3808 17.925ZM96.0858 17.925H92.7958C92.6033 17.925 92.4808 17.8025 92.4808 17.61V7.88C92.4808 7.67 92.5858 7.565 92.7958 7.565H96.0858C96.2958 7.565 96.4007 7.67 96.4007 7.88V17.61C96.4007 17.8025 96.2783 17.925 96.0858 17.925Z" stroke="#CF07AA" stroke-width="4" mask="url(#path-3-outside-1_40024170_29615)"/>
<path d="M102.979 7.32C105.936 7.32 107.809 9.0875 107.809 11.87V17.61C107.809 17.8025 107.686 17.925 107.494 17.925H104.204C104.011 17.925 103.889 17.8025 103.889 17.61V14.0575H102.856C102.296 14.0575 101.981 14.2325 101.981 14.565C101.981 14.8975 102.244 15.09 102.716 15.09H102.839C103.014 15.09 103.119 15.195 103.119 15.3875V17.6275C103.119 17.82 103.031 17.925 102.874 17.96C102.366 18.0475 101.876 18.1 101.404 18.1C99.2336 18.1 98.0611 16.8925 98.0611 15.1075C98.0611 12.955 99.7586 11.7825 102.891 11.7825H103.889V11.6425C103.889 10.995 103.434 10.575 102.734 10.575C102.226 10.575 101.789 10.8025 101.474 11.2225C101.369 11.38 101.246 11.4325 101.071 11.38L98.2536 10.5225C98.0611 10.47 97.9736 10.3125 98.0611 10.12C98.8311 8.37 100.669 7.32 102.979 7.32Z" stroke="#CF07AA" stroke-width="4" mask="url(#path-3-outside-1_40024170_29615)"/>
<path d="M5.605 40.425H2.315C2.105 40.425 2 40.32 2 40.11V30.38C2 30.1875 2.1225 30.065 2.315 30.065H4.9925C5.185 30.065 5.29 30.1525 5.3075 30.3625L5.36 31.0975C6.06 30.24 7.0575 29.82 8.3525 29.82C10.6975 29.82 12.01 31.185 12.01 33.4425V40.11C12.01 40.32 11.905 40.425 11.695 40.425H8.405C8.195 40.425 8.09 40.32 8.09 40.11V34.79C8.09 33.565 7.7925 33.145 7.04 33.145C6.2525 33.145 5.92 33.775 5.92 34.9125V40.11C5.92 40.32 5.815 40.425 5.605 40.425Z" stroke="#CF07AA" stroke-width="4" mask="url(#path-3-outside-1_40024170_29615)"/>
<path d="M11.6879 41.405C11.8804 41.405 12.0029 41.5275 12.0029 41.72V45.115C12.0029 45.3075 11.8804 45.43 11.6879 45.43H9.15039C8.95789 45.43 8.83539 45.3075 8.83539 45.115V43.82H7.97789C7.78539 43.82 7.66289 43.6975 7.66289 43.505V41.72C7.66289 41.5275 7.78539 41.405 7.97789 41.405H11.6879Z" stroke="#CF07AA" stroke-width="4" mask="url(#path-3-outside-1_40024170_29615)"/>
<path d="M14.3121 30.065H19.2821C22.3271 30.065 24.0071 31.6225 24.0071 34.44V40.11C24.0071 40.3025 23.8846 40.425 23.6921 40.425H20.4021C20.2096 40.425 20.0871 40.3025 20.0871 40.11V34.44C20.0871 33.6875 19.6846 33.32 18.8271 33.32H17.9171V40.11C17.9171 40.3025 17.7946 40.425 17.6021 40.425H14.3121C14.1196 40.425 13.9971 40.3025 13.9971 40.11V30.38C13.9971 30.1875 14.1196 30.065 14.3121 30.065Z" stroke="#CF07AA" stroke-width="4" mask="url(#path-3-outside-1_40024170_29615)"/>
<path d="M30.5099 40.67C28.0249 40.67 26.3274 39.4975 25.7324 37.3975C25.6799 37.205 25.7499 37.065 25.9599 37.0125L29.0574 36.2075C29.2324 36.155 29.3549 36.225 29.4424 36.435C29.6874 37.03 30.0549 37.345 30.5099 37.345C31.2449 37.345 31.7349 36.505 31.7349 35.245C31.7349 33.95 31.2274 33.145 30.4049 33.145C29.8624 33.145 29.4249 33.495 29.1799 34.1425C29.1099 34.335 28.9699 34.4225 28.7774 34.37L25.7499 33.6175C25.5399 33.565 25.4699 33.4075 25.5224 33.215C26.2049 31.0275 27.9899 29.82 30.5274 29.82C33.7474 29.82 35.7599 31.9025 35.7599 35.245C35.7599 38.605 33.7649 40.67 30.5099 40.67Z" stroke="#CF07AA" stroke-width="4" mask="url(#path-3-outside-1_40024170_29615)"/>
<path d="M36.3146 28.9975H31.9746C30.0496 28.9975 28.9646 28.0525 28.9646 26.355V25.3925C28.9646 25.2 29.0871 25.0775 29.2796 25.0775H32.0446C32.2371 25.0775 32.3596 25.2 32.3596 25.3925V25.8125C32.3596 26.18 32.5521 26.3725 32.9196 26.3725H36.3146C36.5071 26.3725 36.6296 26.495 36.6296 26.6875V28.6825C36.6296 28.875 36.5071 28.9975 36.3146 28.9975Z" stroke="#CF07AA" stroke-width="4" mask="url(#path-3-outside-1_40024170_29615)"/>
<path d="M40.911 40.67C38.566 40.67 37.271 39.3225 37.271 37.0825V30.38C37.271 30.17 37.376 30.065 37.586 30.065H40.876C41.086 30.065 41.191 30.17 41.191 30.38V35.735C41.191 36.9425 41.471 37.345 42.2234 37.345C43.011 37.345 43.326 36.7325 43.326 35.6125V30.38C43.326 30.17 43.431 30.065 43.641 30.065H46.931C47.141 30.065 47.2459 30.17 47.2459 30.38V40.11C47.2459 40.3025 47.1235 40.425 46.931 40.425H44.2535C44.061 40.425 43.956 40.3375 43.9385 40.1275L43.886 39.3925C43.186 40.25 42.206 40.67 40.911 40.67Z" stroke="#CF07AA" stroke-width="4" mask="url(#path-3-outside-1_40024170_29615)"/>
<path d="M52.9438 40.425H49.6538C49.4438 40.425 49.3388 40.32 49.3388 40.11V30.38C49.3388 30.1875 49.4613 30.065 49.6538 30.065H52.3313C52.5238 30.065 52.6288 30.1525 52.6463 30.3625L52.6988 31.0975C53.3988 30.24 54.3963 29.82 55.6913 29.82C58.0363 29.82 59.3488 31.185 59.3488 33.4425V40.11C59.3488 40.32 59.2438 40.425 59.0338 40.425H55.7438C55.5338 40.425 55.4288 40.32 55.4288 40.11V34.79C55.4288 33.565 55.1313 33.145 54.3788 33.145C53.5913 33.145 53.2588 33.775 53.2588 34.9125V40.11C53.2588 40.32 53.1538 40.425 52.9438 40.425Z" stroke="#CF07AA" stroke-width="4" mask="url(#path-3-outside-1_40024170_29615)"/>
<path d="M59.0267 41.405C59.2192 41.405 59.3417 41.5275 59.3417 41.72V45.115C59.3417 45.3075 59.2192 45.43 59.0267 45.43H56.4892C56.2967 45.43 56.1742 45.3075 56.1742 45.115V43.82H55.3167C55.1242 43.82 55.0017 43.6975 55.0017 43.505V41.72C55.0017 41.5275 55.1242 41.405 55.3167 41.405H59.0267Z" stroke="#CF07AA" stroke-width="4" mask="url(#path-3-outside-1_40024170_29615)"/>
<path d="M61.6509 30.065H66.6209C69.6659 30.065 71.3459 31.6225 71.3459 34.44V40.11C71.3459 40.3025 71.2234 40.425 71.0309 40.425H67.7409C67.5484 40.425 67.4259 40.3025 67.4259 40.11V34.44C67.4259 33.6875 67.0234 33.32 66.1659 33.32H65.2559V40.11C65.2559 40.3025 65.1334 40.425 64.9409 40.425H61.6509C61.4584 40.425 61.3359 40.3025 61.3359 40.11V30.38C61.3359 30.1875 61.4584 30.065 61.6509 30.065Z" stroke="#CF07AA" stroke-width="4" mask="url(#path-3-outside-1_40024170_29615)"/>
<path d="M76.9738 40.425H73.6838C73.4913 40.425 73.3688 40.3025 73.3688 40.11V30.38C73.3688 30.17 73.4738 30.065 73.6838 30.065H76.9738C77.1838 30.065 77.2888 30.17 77.2888 30.38V40.11C77.2888 40.3025 77.1663 40.425 76.9738 40.425Z" stroke="#CF07AA" stroke-width="4" mask="url(#path-3-outside-1_40024170_29615)"/>
<path d="M83.7761 29.925H89.2886C89.4811 29.925 89.6036 30.0475 89.6036 30.24V32.655C89.6036 32.865 89.4986 32.97 89.2886 32.97H87.9936C88.4311 33.32 88.6936 33.915 88.6936 34.615V40.11C88.6936 40.3025 88.5711 40.425 88.3786 40.425H85.0886C84.8961 40.425 84.7736 40.3025 84.7736 40.11V36.5575H83.7411C83.1811 36.5575 82.8661 36.7325 82.8661 37.065C82.8661 37.3975 83.1286 37.59 83.6011 37.59H83.7236C83.8986 37.59 84.0036 37.695 84.0036 37.8875V40.1275C84.0036 40.32 83.9161 40.425 83.7586 40.46C83.2511 40.5475 82.7611 40.6 82.2886 40.6C80.1186 40.6 78.9461 39.3925 78.9461 37.6075C78.9461 35.455 80.6436 34.2825 83.7761 34.2825H84.7736V34.1425C84.7736 33.4775 84.2836 33.075 83.6186 33.075C83.1111 33.075 82.6736 33.3025 82.3586 33.7225C82.2536 33.88 82.1311 33.9325 81.9561 33.88L79.1386 33.0225C78.9461 32.97 78.8586 32.8125 78.9461 32.62C79.7336 30.8875 81.4486 29.925 83.7761 29.925Z" stroke="#CF07AA" stroke-width="4" mask="url(#path-3-outside-1_40024170_29615)"/>
<path d="M86.5891 26.5475H89.2141C89.4066 26.5475 89.5291 26.67 89.5291 26.8625V28.6825C89.5291 28.875 89.3716 28.9975 89.2141 28.9975H83.7191C83.5616 28.9975 83.4041 28.875 83.4041 28.6825V27.16H82.4941C82.3016 27.16 82.1791 27.0375 82.1791 26.845V24.815C82.1791 24.6225 82.3016 24.5 82.4941 24.5H84.8391C85.9591 24.5 86.5891 25.13 86.5891 26.25V26.5475Z" stroke="#CF07AA" stroke-width="4" mask="url(#path-3-outside-1_40024170_29615)"/>
<path d="M94.368 40.67C92.023 40.67 90.728 39.3225 90.728 37.0825V30.38C90.728 30.17 90.833 30.065 91.043 30.065H94.333C94.543 30.065 94.648 30.17 94.648 30.38V35.735C94.648 36.9425 94.928 37.345 95.6805 37.345C96.4679 37.345 96.783 36.7325 96.783 35.6125V30.38C96.783 30.17 96.888 30.065 97.098 30.065H100.388C100.598 30.065 100.703 30.17 100.703 30.38V40.11C100.703 40.3025 100.58 40.425 100.388 40.425H97.7104C97.518 40.425 97.413 40.3375 97.3955 40.1275L97.343 39.3925C96.643 40.25 95.663 40.67 94.368 40.67Z" stroke="#CF07AA" stroke-width="4" mask="url(#path-3-outside-1_40024170_29615)"/>
<path d="M106.401 40.425H103.111C102.901 40.425 102.796 40.32 102.796 40.11V30.38C102.796 30.1875 102.918 30.065 103.111 30.065H105.788C105.981 30.065 106.086 30.1525 106.103 30.3625L106.156 31.0975C106.856 30.24 107.853 29.82 109.148 29.82C111.493 29.82 112.806 31.185 112.806 33.4425V40.11C112.806 40.32 112.701 40.425 112.491 40.425H109.201C108.991 40.425 108.886 40.32 108.886 40.11V34.79C108.886 33.565 108.588 33.145 107.836 33.145C107.048 33.145 106.716 33.775 106.716 34.9125V40.11C106.716 40.32 106.611 40.425 106.401 40.425Z" stroke="#CF07AA" stroke-width="4" mask="url(#path-3-outside-1_40024170_29615)"/>
<path d="M122.073 40.425H118.783C118.59 40.425 118.468 40.3025 118.468 40.11V33.88C118.468 33.425 118.258 33.145 117.908 33.145C117.698 33.145 117.54 33.25 117.418 33.4775C117.313 33.67 117.208 33.74 117.015 33.6875L114.233 32.935C114.023 32.8825 113.953 32.725 114.005 32.55C114.565 30.8875 116.228 29.82 118.258 29.82C120.778 29.82 122.388 31.5 122.388 34.125V40.11C122.388 40.3025 122.265 40.425 122.073 40.425Z" stroke="#CF07AA" stroke-width="4" mask="url(#path-3-outside-1_40024170_29615)"/>
<path d="M130.225 29.89C132.43 29.89 133.97 31.9375 133.97 34.8775C133.97 37.3625 132.833 39.305 130.803 40.3375C130.68 40.4075 130.558 40.425 130.4 40.425H126.585C126.41 40.425 126.288 40.3375 126.235 40.145L123.523 30.415C123.453 30.1875 123.593 30.065 123.803 30.065H127.04C127.215 30.065 127.338 30.17 127.39 30.345L129.123 37.24C129.77 36.75 130.085 36.015 130.085 34.9825C130.085 33.8275 129.718 33.215 129.035 33.215C128.948 33.215 128.86 33.2325 128.773 33.2325C128.633 33.2325 128.545 33.1275 128.545 32.97V30.45C128.545 30.2225 128.633 30.135 128.843 30.065C129.245 29.9425 129.7 29.89 130.225 29.89Z" stroke="#CF07AA" stroke-width="4" mask="url(#path-3-outside-1_40024170_29615)"/>
<defs>
<linearGradient id="paint0_linear_40024170_29615" x1="58.2614" y1="15.7754" x2="58.1302" y2="33.3776" gradientUnits="userSpaceOnUse">
<stop stop-color="#CF07AA"/>
<stop offset="0.373813" stop-color="#CF07AA" stop-opacity="0.2"/>
<stop offset="0.802852" stop-color="#CF07AA"/>
</linearGradient>
</defs>
</svg>
