<svg width="29" height="15" viewBox="0 0 29 15" fill="none" xmlns="http://www.w3.org/2000/svg">
<g clip-path="url(#clip0_40024170_29620)">
<mask id="mask0_40024170_29620" style="mask-type:luminance" maskUnits="userSpaceOnUse" x="0" y="0" width="29" height="15">
<path d="M29 0H0V14.1277H29V0Z" fill="white"/>
</mask>
<g mask="url(#mask0_40024170_29620)">
<path d="M20.6592 5.53897e-07L24.0949 9.57H22.1139L21.4484 7.7158H17.5769L16.9123 9.57H7.78142V3.76818C7.62812 4.41537 7.28161 4.98868 6.79637 5.39799C6.31116 5.80725 5.71474 6.02925 5.10096 6.02909H2.06528V9.57H0V5.53897e-07H5.10096C5.71463 -0.000404542 6.31105 0.221403 6.79629 0.630517C7.28154 1.03963 7.62809 1.61283 7.78142 2.25991V5.53897e-07H14.8991V1.57805H9.84303V3.89578H14.5879V5.5127H9.84303V7.98995H15.4979L18.3669 5.53897e-07H20.6592ZM20.8423 6.02909L19.5131 2.32471L18.1829 6.02909H20.8423ZM5.88 3.01455C5.88 2.21705 5.22453 1.57805 4.41529 1.57805H2.06528V4.45003H4.41529C5.22453 4.45003 5.88 3.80706 5.88 3.01455Z" fill="white"/>
<path d="M28.7813 14.1277H22.9424C22.8986 14.1274 22.8551 14.1182 22.8142 14.1008C22.771 14.0825 22.7315 14.0551 22.698 14.0201C22.6644 13.9851 22.6376 13.9432 22.6191 13.8969C22.6005 13.8506 22.5906 13.8007 22.5898 13.7501C22.5891 13.6996 22.5975 13.6494 22.6147 13.6024L23.3773 11.4791C23.3808 11.4696 23.3825 11.4596 23.3824 11.4494C23.3823 11.4392 23.3803 11.4292 23.3765 11.4199C23.3728 11.4106 23.3673 11.4022 23.3605 11.3952C23.3538 11.3883 23.3457 11.3829 23.337 11.3793C23.3251 11.3744 23.3122 11.373 23.2997 11.3752C23.2871 11.3775 23.2753 11.3834 23.2656 11.3923L20.4954 14.0291C20.4312 14.09 20.349 14.1236 20.2638 14.1237H18.7258C18.6823 14.1233 18.6391 14.1142 18.5986 14.0968C18.5552 14.0787 18.5156 14.0513 18.482 14.0163C18.4484 13.9813 18.4216 13.9394 18.403 13.8931C18.3845 13.8467 18.3745 13.7967 18.3738 13.7462C18.3732 13.6956 18.3817 13.6454 18.399 13.5984L19.1982 11.3704H18.2498L18.4173 10.9048C18.4328 10.8619 18.4598 10.8251 18.4947 10.7989C18.5296 10.7728 18.5709 10.7587 18.6132 10.7583H21.1069L20.9394 11.2248C20.9238 11.2678 20.8967 11.3047 20.8616 11.3306C20.8265 11.3566 20.785 11.3704 20.7426 11.3704H19.9379L19.1716 13.5087H20.1851L22.9781 10.86C23.0417 10.7973 23.124 10.7618 23.2097 10.7603H23.727C23.7709 10.7603 23.8144 10.7694 23.8551 10.7872C23.8984 10.8055 23.938 10.8329 23.9715 10.8679C24.005 10.9029 24.0318 10.9448 24.0503 10.9912C24.0689 11.0375 24.0788 11.0874 24.0796 11.1379C24.0803 11.1884 24.0719 11.2387 24.0547 11.2856L23.2528 13.5157H29.0019L28.7813 14.1277Z" fill="white"/>
<path d="M18.0073 13.5154L17.8397 13.981C17.8242 14.0239 17.7973 14.0608 17.7624 14.0869C17.7274 14.113 17.6862 14.1272 17.6438 14.1275H15.8916C15.8345 14.1271 15.7784 14.1117 15.7279 14.0824C15.6775 14.0532 15.6343 14.0112 15.6021 13.9598C15.5699 13.9085 15.5496 13.8494 15.5429 13.7876C15.5363 13.7258 15.5435 13.6632 15.5639 13.6052L16.5315 10.9136C16.5468 10.8706 16.5737 10.8335 16.6087 10.8074C16.6436 10.7812 16.685 10.7672 16.7274 10.7671H17.3243L16.3374 13.5175L18.0073 13.5154Z" fill="white"/>
<path d="M15.6847 10.7921C15.7281 10.8103 15.7677 10.8376 15.8013 10.8726C15.8349 10.9076 15.8617 10.9494 15.8803 10.9958C15.8988 11.0422 15.9087 11.0921 15.9095 11.1428C15.9101 11.1933 15.9016 11.2436 15.8843 11.2905L14.9524 13.8824C14.9267 13.9543 14.8817 14.0162 14.8232 14.0597C14.7647 14.1033 14.6955 14.1266 14.6246 14.1266H12.7424C12.6853 14.1263 12.6292 14.1109 12.5787 14.0816C12.5283 14.0524 12.4852 14.0103 12.453 13.9589C12.4209 13.9075 12.4006 13.8484 12.3942 13.7866C12.3876 13.7248 12.395 13.6622 12.4156 13.6043L13.1773 11.4809C13.1808 11.4716 13.1826 11.4615 13.1826 11.4514C13.1825 11.4413 13.1806 11.4313 13.1769 11.422C13.1732 11.4128 13.1679 11.4043 13.1612 11.3974C13.1545 11.3903 13.1466 11.3848 13.1379 11.3813C13.1298 11.3774 13.1211 11.3753 13.1123 11.3753H12.563L9.77361 14.0309C9.70941 14.0919 9.62716 14.1255 9.54197 14.1256H9.02385C8.96704 14.1249 8.91122 14.1094 8.86112 14.0802C8.81102 14.051 8.7681 14.0091 8.73602 13.9581C8.70398 13.907 8.68368 13.8483 8.6769 13.7869C8.67008 13.7254 8.67701 13.6631 8.69702 13.6053L9.49713 11.3773H6.99976L7.21947 10.7652H9.80565C9.84926 10.7651 9.89247 10.7743 9.93289 10.7921C9.97624 10.8103 10.0159 10.8376 10.0494 10.8726C10.083 10.9076 10.1099 10.9494 10.1284 10.9958C10.147 11.0422 10.1569 11.0921 10.1576 11.1428C10.1583 11.1933 10.1497 11.2436 10.1324 11.2905L9.36989 13.4139C9.36648 13.4233 9.36481 13.4333 9.365 13.4435C9.36521 13.4536 9.36724 13.4636 9.37098 13.4728C9.37471 13.4821 9.38011 13.4904 9.38682 13.4974C9.39356 13.5044 9.4015 13.5099 9.41016 13.5135C9.42224 13.5186 9.43536 13.5199 9.44808 13.5175C9.46084 13.515 9.47273 13.5088 9.48248 13.4996L12.2518 10.8639C12.3153 10.8011 12.3976 10.7657 12.4834 10.7642H15.5575C15.6012 10.7645 15.6444 10.7739 15.6847 10.7921ZM14.5331 13.369L15.248 11.3753H13.9664C13.9239 11.3754 13.8824 11.3895 13.8473 11.4156C13.8123 11.4417 13.7852 11.4787 13.7696 11.5218L13.0555 13.5156H14.3372C14.3796 13.5154 14.421 13.5014 14.4559 13.4753C14.4909 13.4491 14.5178 13.4121 14.5331 13.369Z" fill="white"/>
<path d="M6.35775 9.80135C6.44435 9.8379 6.52341 9.89277 6.5904 9.96276C6.65739 10.0328 6.711 10.1165 6.74812 10.2092C6.78524 10.3019 6.80511 10.4017 6.80663 10.5028C6.80812 10.6039 6.79122 10.7043 6.7569 10.7983L6.53077 11.4263C6.42688 11.7129 6.24602 11.9586 6.01181 12.1315C5.7776 12.3044 5.50094 12.3963 5.21801 12.3952H4.42432L5.37363 9.74854H6.10603C6.19219 9.74909 6.27756 9.76701 6.35775 9.80135Z" fill="white"/>
<path d="M4.71827 10.1313L4.51136 10.7056H3.10522L3.3112 10.1313H4.71827Z" fill="white"/>
<path d="M4.2486 11.438L4.04263 12.0112H2.63647L2.84245 11.438H4.2486Z" fill="white"/>
</g>
</g>
<defs>
<clipPath id="clip0_40024170_29620">
<rect width="29" height="15" fill="white"/>
</clipPath>
</defs>
</svg>
