<svg width="24" height="24" viewBox="0 0 24 24" fill="none" xmlns="http://www.w3.org/2000/svg">
<path d="M13.8042 18.0005H4.26123V18.9302C5.17384 19.2556 5.83252 20.1201 5.83252 21.1431C5.83248 22.4428 4.77574 23.5004 3.47607 23.5005C2.17629 23.5005 1.11869 22.4429 1.11865 21.1431C1.11865 20.1201 1.77735 19.2556 2.68994 18.9302V17.2144C2.68994 16.7804 3.04217 16.4282 3.47607 16.4282H14.5024L13.8042 18.0005ZM3.47607 10.1431C4.49892 10.1432 5.36263 10.8018 5.68799 11.7144H13.4546L12.7563 13.2856H5.68799C5.3626 14.1981 4.49888 14.8568 3.47607 14.8569C2.17627 14.8569 1.11865 13.7994 1.11865 12.4995C1.11884 11.1998 2.17638 10.1431 3.47607 10.1431ZM3.47607 1.49951C4.77575 1.49966 5.83252 2.55718 5.83252 3.85693C5.83243 4.87983 5.17377 5.74348 4.26123 6.06885V6.99951H15.5493L14.8511 8.5708H3.47607C3.04224 8.5708 2.69007 8.21946 2.68994 7.78564V6.06885C1.7775 5.74342 1.11874 4.87975 1.11865 3.85693C1.11865 2.55709 2.17627 1.49951 3.47607 1.49951Z" fill="#667085"/>
<path d="M17.6194 5.92822H20.762C20.8362 5.92822 20.9067 5.95731 20.9592 6.00732L21.0051 6.06396C21.057 6.14816 21.0617 6.25282 21.0178 6.34131L19.2297 9.91943L18.8674 10.6431H22.3333C22.4439 10.6431 22.5448 10.7065 22.592 10.8062V10.8071C22.6391 10.9077 22.6238 11.0259 22.553 11.1108L14.6956 20.5405C14.6402 20.6071 14.5591 20.6431 14.4758 20.6431C14.4501 20.643 14.4241 20.6395 14.3987 20.6323L14.3254 20.6001C14.2044 20.5248 14.1574 20.3717 14.2151 20.2417L14.2161 20.2407L16.8674 14.2739L17.1799 13.5718H14.4768C14.3804 13.5718 14.2895 13.5223 14.2366 13.4409C14.1842 13.3602 14.1757 13.2579 14.2151 13.1694H14.2161L17.3586 6.09814V6.09717C17.3929 6.02035 17.4589 5.96347 17.5374 5.93994L17.6194 5.92822Z" stroke="#667085"/>
</svg>
