<svg width="25" height="24" viewBox="0 0 25 24" fill="none" xmlns="http://www.w3.org/2000/svg">
<path d="M11.685 3.49963C11.685 3.42402 11.685 3.14523 11.685 2.85005C11.685 2.38331 12.0638 1.88125 12.508 2.0244L23.3644 5.5517C23.5936 5.62604 23.75 5.83907 23.75 6.07929V22.4452C23.75 22.7517 23.5013 23 23.1912 23H12.4559C11.9036 23 11.4559 22.5523 11.4559 22V19.8378M4.75 21.7537V22.4452C4.75 22.7517 4.99868 23 5.30882 23H9.52794" stroke="#667085" stroke-width="1.5" stroke-linecap="round"/>
<path d="M12.9448 8.51026C12.1539 5.82694 9.72498 4 6.95711 4C4.18924 4 1.7603 5.82694 0.969477 8.51026C0.687042 9.53791 0.687042 10.6227 0.91299 11.7074C1.3084 13.0205 2.43814 15.3042 5.37547 18.8439C5.48845 19.0152 5.65791 19.1864 5.77088 19.3006C5.94035 19.529 6.16629 19.7003 6.39224 19.8715C6.73117 20.0428 7.12658 20.0428 7.4655 19.8715C7.69145 19.7003 7.9174 19.529 8.08686 19.3006C8.19983 19.1293 8.36929 18.9581 8.48227 18.8439C11.4196 15.3613 12.5493 13.0205 12.8883 11.7074C13.2272 10.6227 13.2272 9.53791 12.9448 8.51026Z" stroke="#667085" stroke-width="1.5" stroke-linecap="round"/>
<path d="M8.69386 9.07886C8.62264 8.93728 8.49183 8.8493 8.34991 8.84813H7.1504V7.46437C7.15192 7.20976 6.97414 7.00176 6.75343 7.00001C6.60848 6.99885 6.47413 7.08857 6.40292 7.23365L4.80341 10.4626C4.7322 10.6054 4.7322 10.7813 4.80341 10.9241C4.87513 11.0674 5.00796 11.1554 5.15139 11.1548H6.3509V12.5385C6.34433 12.753 6.46706 12.9441 6.64686 13H6.75091C6.89434 13.0006 7.02717 12.9126 7.09889 12.7693L8.6984 9.5403C8.7686 9.39698 8.76658 9.22102 8.69386 9.07886Z" fill="#667085"/>
<line x1="15.4" y1="9.35" x2="17.1" y2="9.35" stroke="#667085" stroke-width="1.3" stroke-linecap="round"/>
<line x1="15.4" y1="12.35" x2="17.1" y2="12.35" stroke="#667085" stroke-width="1.3" stroke-linecap="round"/>
<line x1="15.4" y1="15.35" x2="17.1" y2="15.35" stroke="#667085" stroke-width="1.3" stroke-linecap="round"/>
<line x1="15.4" y1="18.35" x2="17.1" y2="18.35" stroke="#667085" stroke-width="1.3" stroke-linecap="round"/>
<line x1="19.4" y1="9.35" x2="21.1" y2="9.35" stroke="#667085" stroke-width="1.3" stroke-linecap="round"/>
<line x1="19.4" y1="12.35" x2="21.1" y2="12.35" stroke="#667085" stroke-width="1.3" stroke-linecap="round"/>
<line x1="19.4" y1="15.35" x2="21.1" y2="15.35" stroke="#667085" stroke-width="1.3" stroke-linecap="round"/>
<line x1="19.4" y1="18.35" x2="21.1" y2="18.35" stroke="#667085" stroke-width="1.3" stroke-linecap="round"/>
</svg>
