<svg width="24" height="24" viewBox="0 0 24 24" fill="none" xmlns="http://www.w3.org/2000/svg">
<path d="M12 23C18.0751 23 23 18.0751 23 12C23 5.92487 18.0751 1 12 1C5.92487 1 1 5.92487 1 12C1 18.0751 5.92487 23 12 23Z" stroke="#667085" stroke-width="1.5" stroke-linecap="round" stroke-linejoin="round"/>
<path d="M9.2168 19.1523C9.45085 19.1523 9.64054 19.3421 9.64062 19.5762C9.64062 19.8103 9.4509 20 9.2168 20C8.98283 19.9998 8.79297 19.8102 8.79297 19.5762C8.79305 19.3422 8.98288 19.1525 9.2168 19.1523ZM9.84863 5.08789C9.9404 5.13594 9.97574 5.24911 9.92773 5.34082L5.49512 13.8057L10.9648 13.8701C11.03 13.8709 11.0906 13.9057 11.124 13.9619C11.1574 14.0184 11.159 14.0886 11.1279 14.1465L11.127 14.1455L8.56055 18.9443L8.61328 19.1113L8.38477 19.5479L8.29883 19.502L8.22363 19.6494C8.2157 19.6648 8.20057 19.6742 8.18457 19.6758C8.17552 19.6766 8.1659 19.6754 8.15723 19.6709C8.1334 19.6583 8.12434 19.6285 8.13672 19.6045L8.21191 19.457L8.15527 19.4268L8.03223 19.666C8.02378 19.6823 8.00818 19.6926 7.99121 19.6943C7.98145 19.6953 7.97125 19.6933 7.96191 19.6885C7.93636 19.6751 7.92635 19.6438 7.93945 19.6182L8.0625 19.3779L8.00684 19.3486L7.93555 19.4883C7.92763 19.5036 7.91238 19.513 7.89648 19.5146C7.88735 19.5155 7.8779 19.5133 7.86914 19.5088C7.8451 19.4963 7.83522 19.4665 7.84766 19.4424L7.91895 19.3027L7.83594 19.2598L8.06543 18.8232L8.22754 18.7725L10.6514 14.2412L5.18457 14.1777C5.11987 14.1767 5.05976 14.1426 5.02637 14.0869C4.99302 14.0309 4.99035 13.9609 5.02051 13.9033L9.5957 5.16699V5.16602C9.64381 5.07477 9.75707 5.04019 9.84863 5.08789ZM9.73535 18.3047C9.96925 18.3049 10.1591 18.4946 10.1592 18.7285C10.1592 18.9625 9.96929 19.1521 9.73535 19.1523C9.50125 19.1523 9.31152 18.9626 9.31152 18.7285C9.31159 18.4945 9.50129 18.3047 9.73535 18.3047ZM10.6924 18.3047C10.9264 18.3048 11.1161 18.4945 11.1162 18.7285C11.1162 18.9626 10.9264 19.1523 10.6924 19.1523C10.4583 19.1523 10.2686 18.9626 10.2686 18.7285C10.2686 18.4945 10.4583 18.3047 10.6924 18.3047ZM10.2168 17.3623C10.4509 17.3623 10.6406 17.552 10.6406 17.7861C10.6406 18.0202 10.4509 18.21 10.2168 18.21C9.98271 18.21 9.79299 18.0202 9.79297 17.7861C9.79297 17.552 9.9827 17.3623 10.2168 17.3623ZM11.1611 17.3623C11.3952 17.3623 11.585 17.552 11.585 17.7861C11.5849 18.0202 11.3952 18.21 11.1611 18.21C10.9271 18.2098 10.7373 18.0201 10.7373 17.7861C10.7373 17.5521 10.9271 17.3624 11.1611 17.3623ZM10.6924 16.4199C10.9264 16.42 11.1162 16.6097 11.1162 16.8438C11.1162 17.0778 10.9264 17.2675 10.6924 17.2676C10.4583 17.2676 10.2686 17.0778 10.2686 16.8438C10.2686 16.6096 10.4583 16.4199 10.6924 16.4199ZM11.6348 16.4199C11.8688 16.42 12.0586 16.6097 12.0586 16.8438C12.0586 17.0778 11.8688 17.2675 11.6348 17.2676C11.4007 17.2676 11.211 17.0778 11.2109 16.8438C11.2109 16.6096 11.4007 16.4199 11.6348 16.4199ZM12.5859 16.4199C12.8199 16.4201 13.0098 16.6098 13.0098 16.8438C13.0097 17.0777 12.8198 17.2674 12.5859 17.2676C12.3519 17.2676 12.1621 17.0778 12.1621 16.8438C12.1621 16.6096 12.3518 16.4199 12.5859 16.4199ZM11.1611 15.4453C11.3951 15.4453 11.5848 15.6352 11.585 15.8691C11.585 16.1032 11.3952 16.293 11.1611 16.293C10.9271 16.2929 10.7373 16.1032 10.7373 15.8691C10.7375 15.6352 10.9272 15.4454 11.1611 15.4453ZM12.1182 15.4453C12.3522 15.4453 12.5428 15.6352 12.543 15.8691C12.543 16.1032 12.3523 16.293 12.1182 16.293C11.8843 16.2927 11.6943 16.1031 11.6943 15.8691C11.6945 15.6353 11.8844 15.4456 12.1182 15.4453ZM13.0654 15.4453C13.2994 15.4454 13.4891 15.6352 13.4893 15.8691C13.4893 16.1032 13.2995 16.2929 13.0654 16.293C12.8313 16.293 12.6416 16.1032 12.6416 15.8691C12.6418 15.6352 12.8314 15.4453 13.0654 15.4453ZM14.7998 8.18555C14.8617 8.0796 14.9973 8.04372 15.1035 8.10547C15.2096 8.16734 15.2453 8.30305 15.1836 8.40918L14.2803 9.95996H19.0176C19.0978 9.95996 19.1724 10.0034 19.2119 10.0732C19.2513 10.1432 19.2494 10.2292 19.208 10.2979L16.0801 15.4658C16.0578 15.5027 16.026 15.5297 15.9902 15.5479V15.5732H15.8896C15.8504 15.5732 15.8103 15.5628 15.7744 15.541C15.6696 15.4773 15.6357 15.3403 15.6992 15.2354L18.623 10.4053H13.8926C13.8131 10.4051 13.7398 10.3619 13.7002 10.293C13.6608 10.224 13.6611 10.139 13.7012 10.0703L14.7998 8.18555ZM11.6348 14.5029C11.8687 14.503 12.0584 14.6928 12.0586 14.9268C12.0586 15.1608 11.8688 15.3505 11.6348 15.3506C11.4007 15.3506 11.2109 15.1609 11.2109 14.9268C11.2111 14.6928 11.4008 14.5029 11.6348 14.5029ZM12.5859 14.5029C12.8198 14.5031 13.0096 14.6929 13.0098 14.9268C13.0098 15.1607 12.8199 15.3504 12.5859 15.3506C12.3518 15.3506 12.1621 15.1609 12.1621 14.9268C12.1623 14.6928 12.3519 14.5029 12.5859 14.5029ZM13.541 14.5029C13.7749 14.5031 13.9647 14.6929 13.9648 14.9268C13.9648 15.1608 13.775 15.3504 13.541 15.3506C13.3069 15.3506 13.1172 15.1609 13.1172 14.9268C13.1173 14.6928 13.307 14.5029 13.541 14.5029ZM14.4961 14.5029C14.73 14.5031 14.9198 14.6929 14.9199 14.9268C14.9199 15.1608 14.7301 15.3505 14.4961 15.3506C14.262 15.3506 14.0723 15.1609 14.0723 14.9268C14.0724 14.6928 14.2621 14.5029 14.4961 14.5029ZM12.1182 13.5605C12.3522 13.5605 12.5429 13.7503 12.543 13.9844C12.543 14.2185 12.3523 14.4082 12.1182 14.4082C11.8843 14.408 11.6943 14.2183 11.6943 13.9844C11.6944 13.7505 11.8843 13.5608 12.1182 13.5605ZM13.0654 13.5605C13.2994 13.5606 13.4892 13.7504 13.4893 13.9844C13.4893 14.2184 13.2995 14.4081 13.0654 14.4082C12.8313 14.4082 12.6416 14.2185 12.6416 13.9844C12.6417 13.7503 12.8314 13.5605 13.0654 13.5605ZM14.0186 13.5605C14.2525 13.5607 14.4423 13.7504 14.4424 13.9844C14.4424 14.2184 14.2525 14.4081 14.0186 14.4082C13.7845 14.4082 13.5947 14.2185 13.5947 13.9844C13.5948 13.7503 13.7845 13.5605 14.0186 13.5605ZM14.9736 13.5605C15.2076 13.5607 15.3974 13.7504 15.3975 13.9844C15.3975 14.2184 15.2076 14.4081 14.9736 14.4082C14.7395 14.4082 14.5498 14.2185 14.5498 13.9844C14.5499 13.7503 14.7396 13.5605 14.9736 13.5605ZM6.88184 12.5869C7.11594 12.5869 7.30664 12.7766 7.30664 13.0107C7.30644 13.2447 7.11582 13.4346 6.88184 13.4346C6.64807 13.4343 6.45821 13.2445 6.45801 13.0107C6.45801 12.7768 6.64795 12.5872 6.88184 12.5869ZM7.83789 12.5869C8.07179 12.5872 8.26172 12.7768 8.26172 13.0107C8.26152 13.2445 8.07166 13.4343 7.83789 13.4346C7.60391 13.4346 7.41328 13.2447 7.41309 13.0107C7.41309 12.7766 7.60379 12.5869 7.83789 12.5869ZM8.79297 12.5869C9.02689 12.5871 9.2168 12.7768 9.2168 13.0107C9.2166 13.2445 9.02677 13.4344 8.79297 13.4346C8.55899 13.4346 8.36934 13.2447 8.36914 13.0107C8.36914 12.7766 8.55887 12.5869 8.79297 12.5869ZM9.74121 12.5869C9.97531 12.5869 10.165 12.7766 10.165 13.0107C10.1648 13.2447 9.97519 13.4346 9.74121 13.4346C9.5073 13.4345 9.31758 13.2446 9.31738 13.0107C9.31738 12.7767 9.50718 12.587 9.74121 12.5869ZM10.6924 12.5869C10.9264 12.587 11.1162 12.7767 11.1162 13.0107C11.116 13.2446 10.9263 13.4345 10.6924 13.4346C10.4584 13.4346 10.2688 13.2447 10.2686 13.0107C10.2686 12.7766 10.4583 12.5869 10.6924 12.5869ZM11.6455 12.5869C11.8795 12.587 12.0693 12.7767 12.0693 13.0107C12.0691 13.2446 11.8794 13.4344 11.6455 13.4346C11.4115 13.4346 11.2219 13.2447 11.2217 13.0107C11.2217 12.7766 11.4114 12.5869 11.6455 12.5869ZM12.5918 12.5869C12.8259 12.5869 13.0156 12.7766 13.0156 13.0107C13.0154 13.2447 12.8258 13.4346 12.5918 13.4346C12.3579 13.4345 12.1682 13.2446 12.168 13.0107C12.168 12.7767 12.3578 12.587 12.5918 12.5869ZM13.5469 12.5869C13.781 12.5869 13.9707 12.7766 13.9707 13.0107C13.9705 13.2447 13.7809 13.4346 13.5469 13.4346C13.313 13.4345 13.1232 13.2446 13.123 13.0107C13.123 12.7767 13.3129 12.587 13.5469 12.5869ZM14.5 12.5869C14.7341 12.5869 14.9238 12.7766 14.9238 13.0107C14.9236 13.2447 14.734 13.4346 14.5 13.4346C14.2661 13.4345 14.0764 13.2446 14.0762 13.0107C14.0762 12.7767 14.2659 12.587 14.5 12.5869ZM15.4551 12.5869C15.6892 12.5869 15.8789 12.7766 15.8789 13.0107C15.8787 13.2447 15.6891 13.4346 15.4551 13.4346C15.2212 13.4345 15.0314 13.2446 15.0312 13.0107C15.0312 12.7767 15.2211 12.587 15.4551 12.5869ZM16.4043 12.5869C16.6383 12.5871 16.8281 12.7767 16.8281 13.0107C16.8279 13.2446 16.6381 13.4344 16.4043 13.4346C16.1703 13.4346 15.9807 13.2447 15.9805 13.0107C15.9805 12.7766 16.1702 12.5869 16.4043 12.5869ZM7.35547 11.6436C7.58942 11.6436 7.77905 11.8335 7.7793 12.0674C7.7793 12.3015 7.58957 12.4922 7.35547 12.4922C7.12144 12.4921 6.93164 12.3014 6.93164 12.0674C6.93188 11.8335 7.12159 11.6436 7.35547 11.6436ZM8.3125 11.6436C8.54645 11.6436 8.73609 11.8335 8.73633 12.0674C8.73633 12.3015 8.5466 12.4922 8.3125 12.4922C8.07858 12.492 7.88867 12.3014 7.88867 12.0674C7.88891 11.8336 8.07873 11.6438 8.3125 11.6436ZM9.26562 11.6436C9.49958 11.6436 9.68921 11.8335 9.68945 12.0674C9.68945 12.3015 9.49973 12.4922 9.26562 12.4922C9.03165 12.492 8.8418 12.3014 8.8418 12.0674C8.84204 11.8336 9.0318 11.6437 9.26562 11.6436ZM10.2168 11.6436C10.4507 11.6436 10.6404 11.8335 10.6406 12.0674C10.6406 12.3015 10.4509 12.4922 10.2168 12.4922C9.9827 12.4922 9.79297 12.3015 9.79297 12.0674C9.79321 11.8335 9.98285 11.6436 10.2168 11.6436ZM11.168 11.6436C11.4018 11.6437 11.5916 11.8336 11.5918 12.0674C11.5918 12.3014 11.402 12.492 11.168 12.4922C10.9339 12.4922 10.7441 12.3015 10.7441 12.0674C10.7444 11.8335 10.934 11.6436 11.168 11.6436ZM12.1182 11.6436C12.3521 11.6436 12.5427 11.8335 12.543 12.0674C12.543 12.3015 12.3523 12.4922 12.1182 12.4922C11.8843 12.4919 11.6943 12.3013 11.6943 12.0674C11.6946 11.8336 11.8844 11.6438 12.1182 11.6436ZM13.0654 11.6436C13.2993 11.6436 13.489 11.8335 13.4893 12.0674C13.4893 12.3014 13.2995 12.4921 13.0654 12.4922C12.8313 12.4922 12.6416 12.3015 12.6416 12.0674C12.6418 11.8335 12.8315 11.6436 13.0654 11.6436ZM14.0225 11.6436C14.2564 11.6436 14.446 11.8335 14.4463 12.0674C14.4463 12.3015 14.2566 12.4922 14.0225 12.4922C13.7884 12.4922 13.5986 12.3015 13.5986 12.0674C13.5989 11.8335 13.7885 11.6436 14.0225 11.6436ZM14.9756 11.6436C15.2095 11.6436 15.3992 11.8335 15.3994 12.0674C15.3994 12.3015 15.2097 12.4922 14.9756 12.4922C14.7415 12.4922 14.5518 12.3015 14.5518 12.0674C14.552 11.8335 14.7416 11.6436 14.9756 11.6436ZM15.9248 11.6436C16.1585 11.6438 16.3484 11.8336 16.3486 12.0674C16.3486 12.3013 16.1587 12.4919 15.9248 12.4922C15.6907 12.4922 15.5 12.3015 15.5 12.0674C15.5002 11.8335 15.6909 11.6436 15.9248 11.6436ZM16.8799 11.6436C17.1136 11.6438 17.3035 11.8336 17.3037 12.0674C17.3037 12.3013 17.1138 12.492 16.8799 12.4922C16.6458 12.4922 16.4561 12.3015 16.4561 12.0674C16.4563 11.8335 16.6459 11.6436 16.8799 11.6436ZM7.83789 10.7012C8.07178 10.7014 8.2617 10.8911 8.26172 11.125C8.26172 11.359 8.07179 11.5486 7.83789 11.5488C7.60379 11.5488 7.41309 11.3591 7.41309 11.125C7.4131 10.8909 7.6038 10.7012 7.83789 10.7012ZM8.79297 10.7012C9.02689 10.7014 9.21678 10.891 9.2168 11.125C9.2168 11.359 9.02689 11.5486 8.79297 11.5488C8.55887 11.5488 8.36914 11.3591 8.36914 11.125C8.36915 10.8909 8.55887 10.7012 8.79297 10.7012ZM9.74121 10.7012C9.9753 10.7012 10.165 10.8909 10.165 11.125C10.165 11.3591 9.97531 11.5488 9.74121 11.5488C9.50718 11.5487 9.31738 11.3591 9.31738 11.125C9.3174 10.891 9.50718 10.7013 9.74121 10.7012ZM10.6924 10.7012C10.9264 10.7012 11.1162 10.891 11.1162 11.125C11.1162 11.3591 10.9264 11.5488 10.6924 11.5488C10.4583 11.5488 10.2686 11.3591 10.2686 11.125C10.2686 10.8909 10.4583 10.7012 10.6924 10.7012ZM11.6494 10.7012C11.8835 10.7012 12.0732 10.8909 12.0732 11.125C12.0732 11.3591 11.8835 11.5488 11.6494 11.5488C11.4154 11.5488 11.2256 11.3591 11.2256 11.125C11.2256 10.8909 11.4154 10.7012 11.6494 10.7012ZM12.5918 10.7012C12.8259 10.7012 13.0156 10.8909 13.0156 11.125C13.0156 11.3591 12.8259 11.5488 12.5918 11.5488C12.3578 11.5488 12.168 11.3591 12.168 11.125C12.168 10.891 12.3578 10.7012 12.5918 10.7012ZM13.5469 10.7012C13.781 10.7012 13.9707 10.8909 13.9707 11.125C13.9707 11.3591 13.781 11.5488 13.5469 11.5488C13.3129 11.5487 13.123 11.359 13.123 11.125C13.1231 10.891 13.3129 10.7013 13.5469 10.7012ZM14.5 10.7012C14.7341 10.7012 14.9238 10.8909 14.9238 11.125C14.9238 11.3591 14.7341 11.5488 14.5 11.5488C14.2659 11.5488 14.0762 11.3591 14.0762 11.125C14.0762 10.8909 14.266 10.7012 14.5 10.7012ZM15.4551 10.7012C15.6892 10.7012 15.8789 10.8909 15.8789 11.125C15.8789 11.3591 15.6892 11.5488 15.4551 11.5488C15.2211 11.5487 15.0312 11.359 15.0312 11.125C15.0313 10.891 15.2211 10.7013 15.4551 10.7012ZM16.4043 10.7012C16.6383 10.7013 16.8281 10.891 16.8281 11.125C16.8281 11.359 16.6383 11.5487 16.4043 11.5488C16.1702 11.5488 15.9805 11.3591 15.9805 11.125C15.9805 10.8909 16.1702 10.7012 16.4043 10.7012ZM17.3594 10.7012C17.5934 10.7013 17.7832 10.891 17.7832 11.125C17.7832 11.359 17.5934 11.5487 17.3594 11.5488C17.1253 11.5488 16.9355 11.3591 16.9355 11.125C16.9356 10.8909 17.1253 10.7012 17.3594 10.7012ZM8.31055 9.75879C8.54465 9.75879 8.73437 9.94851 8.73438 10.1826C8.73438 10.4167 8.54465 10.6064 8.31055 10.6064C8.07655 10.6063 7.88672 10.4166 7.88672 10.1826C7.88672 9.94859 8.07655 9.75891 8.31055 9.75879ZM9.26367 9.75879C9.49777 9.75879 9.6875 9.94851 9.6875 10.1826C9.6875 10.4167 9.49777 10.6064 9.26367 10.6064C9.02962 10.6064 8.83984 10.4167 8.83984 10.1826C8.83984 9.94855 9.02962 9.75885 9.26367 9.75879ZM10.2168 9.75879C10.4509 9.75879 10.6406 9.94851 10.6406 10.1826C10.6406 10.4167 10.4509 10.6064 10.2168 10.6064C9.9827 10.6064 9.79297 10.4167 9.79297 10.1826C9.79297 9.94852 9.9827 9.7588 10.2168 9.75879ZM11.166 9.75879C11.3999 9.75902 11.5898 9.94866 11.5898 10.1826C11.5898 10.4166 11.3999 10.6062 11.166 10.6064C10.9319 10.6064 10.7422 10.4167 10.7422 10.1826C10.7422 9.94851 10.9319 9.75879 11.166 9.75879ZM12.1211 9.75879C12.355 9.75899 12.5449 9.94864 12.5449 10.1826C12.5449 10.4166 12.355 10.6062 12.1211 10.6064C11.887 10.6064 11.6973 10.4167 11.6973 10.1826C11.6973 9.94851 11.887 9.75879 12.1211 9.75879ZM8.78223 8.81641C9.01621 8.81654 9.20605 9.00622 9.20605 9.24023C9.20597 9.47418 9.01616 9.66392 8.78223 9.66406C8.54818 9.66406 8.35848 9.47426 8.3584 9.24023C8.3584 9.00613 8.54812 8.81641 8.78223 8.81641ZM9.73535 8.81641C9.96929 8.8166 10.1592 9.00625 10.1592 9.24023C10.1591 9.47414 9.96924 9.66387 9.73535 9.66406C9.5013 9.66406 9.31161 9.47426 9.31152 9.24023C9.31152 9.00613 9.50125 8.81641 9.73535 8.81641ZM10.6885 8.81641C10.9224 8.81666 11.1123 9.00629 11.1123 9.24023C11.1122 9.47411 10.9223 9.66381 10.6885 9.66406C10.4544 9.66406 10.2638 9.47426 10.2637 9.24023C10.2637 9.00613 10.4544 8.81641 10.6885 8.81641ZM11.6455 8.81641C11.8795 8.81653 12.0693 9.00621 12.0693 9.24023C12.0693 9.47419 11.8795 9.66394 11.6455 9.66406C11.4115 9.66406 11.2218 9.47426 11.2217 9.24023C11.2217 9.00613 11.4114 8.81641 11.6455 8.81641ZM12.5918 8.81641C12.8259 8.81641 13.0156 9.00613 13.0156 9.24023C13.0155 9.47426 12.8258 9.66406 12.5918 9.66406C12.3578 9.66399 12.1681 9.47422 12.168 9.24023C12.168 9.00618 12.3578 8.81648 12.5918 8.81641ZM9.26367 7.87305C9.49777 7.87305 9.6875 8.06375 9.6875 8.29785C9.68726 8.53175 9.49762 8.72168 9.26367 8.72168C9.02977 8.72162 8.84009 8.53171 8.83984 8.29785C8.83984 8.06379 9.02962 7.87311 9.26367 7.87305ZM10.2168 7.87305C10.4509 7.87305 10.6406 8.06375 10.6406 8.29785C10.6404 8.53175 10.4507 8.72168 10.2168 8.72168C9.98285 8.72167 9.79321 8.53174 9.79297 8.29785C9.79297 8.06375 9.9827 7.87305 10.2168 7.87305ZM11.166 7.87305C11.3999 7.87328 11.5898 8.06389 11.5898 8.29785C11.5896 8.5316 11.3998 8.72145 11.166 8.72168C10.9321 8.72168 10.7424 8.53175 10.7422 8.29785C10.7422 8.06375 10.9319 7.87305 11.166 7.87305ZM12.1211 7.87305C12.355 7.87324 12.5449 8.06387 12.5449 8.29785C12.5447 8.53163 12.3549 8.72148 12.1211 8.72168C11.8871 8.72168 11.6975 8.53175 11.6973 8.29785C11.6973 8.06375 11.887 7.87305 12.1211 7.87305ZM13.0742 7.87305C13.3081 7.8733 13.498 8.06391 13.498 8.29785C13.4978 8.53159 13.308 8.72143 13.0742 8.72168C12.8403 8.72168 12.6497 8.53175 12.6494 8.29785C12.6494 8.06375 12.8401 7.87305 13.0742 7.87305ZM16.1475 7.03223L16.8027 7.53516L16.0098 7.75488L15.7383 8.54004L15.2871 7.8457L14.4648 7.82715L14.9785 7.17871L14.7412 6.38281L15.5107 6.67676L16.1865 6.20215L16.1475 7.03223ZM9.7373 6.88477C9.97129 6.88487 10.1611 7.0746 10.1611 7.30859C10.1611 7.54263 9.97132 7.73232 9.7373 7.73242C9.5032 7.73242 9.31348 7.5427 9.31348 7.30859C9.31353 7.07454 9.50324 6.88477 9.7373 6.88477ZM10.6924 6.88477C10.9264 6.88483 11.1162 7.07458 11.1162 7.30859C11.1162 7.54265 10.9264 7.73235 10.6924 7.73242C10.4583 7.73242 10.2686 7.5427 10.2686 7.30859C10.2686 7.07454 10.4583 6.88477 10.6924 6.88477ZM11.6475 6.88477C11.8815 6.8848 12.0712 7.07456 12.0713 7.30859C12.0713 7.54268 11.8815 7.73239 11.6475 7.73242C11.4134 7.73242 11.2236 7.5427 11.2236 7.30859C11.2237 7.07454 11.4134 6.88477 11.6475 6.88477ZM12.5986 6.88477C12.8325 6.88495 13.0224 7.07465 13.0225 7.30859C13.0225 7.54259 12.8326 7.73224 12.5986 7.73242C12.3645 7.73242 12.1748 7.5427 12.1748 7.30859C12.1749 7.07454 12.3646 6.88477 12.5986 6.88477ZM13.5469 6.88477C13.7809 6.88477 13.9706 7.07454 13.9707 7.30859C13.9707 7.5427 13.781 7.73242 13.5469 7.73242C13.3129 7.73231 13.123 7.54263 13.123 7.30859C13.1231 7.07461 13.3129 6.88487 13.5469 6.88477ZM10.2129 5.94238C10.4468 5.94256 10.6367 6.13225 10.6367 6.36621C10.6367 6.6002 10.4468 6.78986 10.2129 6.79004C9.97879 6.79004 9.78906 6.60031 9.78906 6.36621C9.7891 6.13214 9.97881 5.94238 10.2129 5.94238ZM11.1611 5.94238C11.3952 5.94238 11.5849 6.13214 11.585 6.36621C11.585 6.60031 11.3952 6.79004 11.1611 6.79004C10.9271 6.78993 10.7373 6.60024 10.7373 6.36621C10.7373 6.13221 10.9272 5.9425 11.1611 5.94238ZM12.1211 5.94238C12.355 5.94258 12.5449 6.13227 12.5449 6.36621C12.5449 6.60019 12.355 6.78984 12.1211 6.79004C11.887 6.79004 11.6973 6.60031 11.6973 6.36621C11.6973 6.13214 11.887 5.94238 12.1211 5.94238ZM13.0693 5.94238C13.3034 5.94238 13.4931 6.13214 13.4932 6.36621C13.4932 6.60031 13.3034 6.79004 13.0693 6.79004C12.8353 6.78995 12.6455 6.60026 12.6455 6.36621C12.6455 6.1322 12.8353 5.94247 13.0693 5.94238ZM14.0225 5.94238C14.2565 5.94238 14.4462 6.13214 14.4463 6.36621C14.4463 6.60031 14.2566 6.79004 14.0225 6.79004C13.7884 6.79 13.5986 6.60029 13.5986 6.36621C13.5987 6.13217 13.7884 5.94242 14.0225 5.94238ZM10.6924 5C10.9264 5.00007 11.1162 5.18977 11.1162 5.42383C11.1162 5.65785 10.9264 5.84759 10.6924 5.84766C10.4583 5.84766 10.2686 5.65789 10.2686 5.42383C10.2686 5.18973 10.4583 5 10.6924 5ZM11.6475 5C11.8815 5.00003 12.0713 5.18975 12.0713 5.42383C12.0712 5.65787 11.8815 5.84762 11.6475 5.84766C11.4134 5.84766 11.2237 5.65789 11.2236 5.42383C11.2236 5.18973 11.4134 5 11.6475 5ZM12.5986 5C12.8326 5.00018 13.0225 5.18984 13.0225 5.42383C13.0224 5.65778 12.8326 5.84748 12.5986 5.84766C12.3646 5.84766 12.1748 5.65789 12.1748 5.42383C12.1748 5.18973 12.3645 5 12.5986 5ZM13.5469 5C13.781 5 13.9707 5.18973 13.9707 5.42383C13.9707 5.65789 13.781 5.84766 13.5469 5.84766C13.3129 5.84755 13.1231 5.65783 13.123 5.42383C13.123 5.18979 13.3129 5.00011 13.5469 5ZM14.5 5C14.7341 5 14.9238 5.18973 14.9238 5.42383C14.9238 5.65789 14.7341 5.84766 14.5 5.84766C14.266 5.8476 14.0762 5.65786 14.0762 5.42383C14.0762 5.18976 14.2659 5.00005 14.5 5Z" fill="#667085"/>
</svg>
