<svg width="24" height="24" viewBox="0 0 24 24" fill="none" xmlns="http://www.w3.org/2000/svg">
<path d="M12 12.1748C16.8602 12.1748 20.8251 16.0086 20.8252 20.7373V20.7383C20.8241 21.1588 20.6567 21.562 20.3594 21.8594C20.062 22.1567 19.6588 22.3241 19.2383 22.3252H4.76172C4.34124 22.3241 3.93796 22.1567 3.64062 21.8594C3.34329 21.562 3.1759 21.1588 3.1748 20.7383V20.7373C3.17491 16.0086 7.13975 12.1748 12 12.1748ZM12 13.3252C7.76154 13.3252 4.3253 16.6542 4.3252 20.7373L4.33398 20.8223C4.35094 20.9065 4.39245 20.9842 4.4541 21.0459C4.53609 21.1279 4.64675 21.1744 4.7627 21.1748H19.2373L19.3223 21.166C19.4065 21.1491 19.4843 21.1075 19.5459 21.0459C19.6279 20.9639 19.6744 20.8532 19.6748 20.7373L19.665 20.3574C19.4596 16.4514 16.1061 13.3252 12 13.3252Z" fill="#667085" stroke="#667085" stroke-width="0.4"/>
<path d="M11.083 0.765625C11.9947 0.584274 12.94 0.677471 13.7988 1.0332C14.6575 1.38895 15.3918 1.99086 15.9082 2.76367C16.4246 3.53658 16.7002 4.44544 16.7002 5.375C16.6988 6.62105 16.2034 7.81618 15.3223 8.69727C14.4412 9.57835 13.246 10.0738 12 10.0752C11.0704 10.0752 10.1616 9.79963 9.38867 9.2832C8.61586 8.76683 8.01395 8.0325 7.6582 7.17383C7.30247 6.31502 7.20927 5.36972 7.39062 4.45801C7.57199 3.54635 8.01948 2.70903 8.67676 2.05176C9.33403 1.39448 10.1713 0.946992 11.083 0.765625ZM11.7373 1.83496C11.1277 1.88019 10.5381 2.08159 10.0273 2.42285C9.4436 2.81292 8.98939 3.36797 8.7207 4.0166C8.45203 4.66524 8.38161 5.37879 8.51855 6.06738C8.65553 6.75601 8.99376 7.38829 9.49023 7.88477C9.98671 8.38124 10.619 8.71947 11.3076 8.85645C11.9962 8.99339 12.7098 8.92297 13.3584 8.6543C14.007 8.38561 14.5621 7.9314 14.9521 7.34766C15.3422 6.76386 15.5498 6.07712 15.5498 5.375C15.5487 4.43382 15.1743 3.53173 14.5088 2.86621C13.8433 2.20069 12.9412 1.82629 12 1.8252L11.7373 1.83496Z" fill="#667085" stroke="#667085" stroke-width="0.4"/>
</svg>
