<svg width="90" height="17" viewBox="0 0 90 17" fill="none" xmlns="http://www.w3.org/2000/svg">
<g filter="url(#filter0_d_40024170_29612)">
<path d="M5.72475 8.04641C5.47627 8.04641 5.24728 8.01717 5.03777 7.95871C4.83314 7.90024 4.65774 7.81254 4.51158 7.69561C4.36541 7.5738 4.25092 7.42277 4.16809 7.2425C4.09014 7.05735 4.05116 6.84298 4.05116 6.59937C4.05116 6.46295 4.0609 6.34358 4.08039 6.24126C4.10475 6.13408 4.13155 6.03907 4.16078 5.95624C4.19489 5.87341 4.23143 5.79789 4.27041 5.72968C4.31426 5.66147 4.35811 5.5957 4.40195 5.53236C4.47504 5.4203 4.54325 5.30093 4.60659 5.17426C4.66992 5.04758 4.70159 4.9209 4.70159 4.79423V4.69922H4V3.92454H4.82583C5.07432 3.92454 5.26433 3.98301 5.39588 4.09994C5.52743 4.21687 5.5932 4.37278 5.5932 4.56767V4.60421C5.5932 4.75525 5.56884 4.90385 5.52012 5.05002C5.4714 5.19618 5.39588 5.36427 5.29356 5.55429C5.21561 5.70045 5.15227 5.83687 5.10355 5.96355C5.05483 6.08535 5.03047 6.23152 5.03047 6.40205V6.61399C5.03047 6.83323 5.08893 6.99889 5.20586 7.11095C5.32767 7.21814 5.49332 7.27173 5.70283 7.27173C5.9172 7.27173 6.08286 7.21814 6.19979 7.11095C6.31672 6.99889 6.37519 6.84054 6.37519 6.63591V6.05125C6.37519 5.84662 6.34352 5.68827 6.28018 5.57621C6.22171 5.46415 6.10722 5.40812 5.93669 5.40812H5.84899V4.70653H5.99516C6.12671 4.70653 6.23389 4.66998 6.31672 4.5969C6.40442 4.51895 6.44827 4.38983 6.44827 4.20956V3.77107H7.3618V4.13648C7.3618 4.34111 7.30334 4.51651 7.18641 4.66268C7.07435 4.80884 6.8819 4.90629 6.60905 4.95501V5.00617C7.10602 5.16208 7.3545 5.61762 7.3545 6.37281C7.3545 6.63104 7.31552 6.8649 7.23756 7.07441C7.16448 7.27904 7.05729 7.45444 6.916 7.6006C6.77471 7.74189 6.60174 7.85152 6.39711 7.92947C6.19735 8.00743 5.97323 8.04641 5.72475 8.04641Z" fill="white"/>
<path d="M10.0474 5.26196C10.0474 5.04758 9.99139 4.88193 9.87933 4.76499C9.77214 4.64806 9.59918 4.58959 9.36045 4.58959C9.1412 4.58959 8.9658 4.63588 8.83425 4.72845C8.70757 4.82102 8.60039 4.93552 8.51269 5.07194L7.95726 4.57498C8.09855 4.35086 8.28126 4.17302 8.50538 4.04147C8.73437 3.90505 9.04132 3.83684 9.42622 3.83684C9.9378 3.83684 10.3251 3.95621 10.5882 4.19495C10.8513 4.42881 10.9829 4.76743 10.9829 5.2108V7.95871H10.0474V5.26196Z" fill="white"/>
<path d="M13.4736 8.04641C13.0936 8.04641 12.7696 7.98307 12.5016 7.85639C12.2385 7.72971 12.0071 7.54944 11.8073 7.31558L12.3847 6.76746C12.526 6.93798 12.6916 7.07197 12.8817 7.16941C13.0717 7.26198 13.2861 7.30827 13.5248 7.30827C13.7733 7.30827 13.9511 7.26686 14.0583 7.18403C14.1704 7.1012 14.2264 6.98671 14.2264 6.84054C14.2264 6.69438 14.1825 6.58719 14.0948 6.51898C14.0071 6.44589 13.8756 6.39717 13.7002 6.37281L13.3055 6.32165C13.1058 6.29729 12.9231 6.25588 12.7574 6.19741C12.5918 6.13895 12.448 6.06099 12.3262 5.96355C12.2093 5.86611 12.1167 5.74674 12.0485 5.60544C11.9852 5.46415 11.9535 5.2985 11.9535 5.10848C11.9535 4.91359 11.9901 4.7382 12.0631 4.58229C12.1411 4.4215 12.2458 4.28752 12.3774 4.18033C12.5138 4.06827 12.6746 3.98301 12.8597 3.92454C13.0498 3.86608 13.2593 3.83684 13.4882 3.83684C13.8634 3.83684 14.1704 3.89287 14.4091 4.00493C14.6478 4.11699 14.8622 4.27047 15.0522 4.46535L14.4968 5.02078C14.3847 4.89411 14.241 4.78935 14.0656 4.70653C13.8902 4.61883 13.7002 4.57498 13.4956 4.57498C13.2763 4.57498 13.1131 4.61883 13.0059 4.70653C12.9036 4.78935 12.8524 4.90141 12.8524 5.04271C12.8524 5.184 12.8963 5.29362 12.984 5.37158C13.0765 5.44466 13.2252 5.49582 13.4298 5.52505L13.8244 5.58352C14.2239 5.64198 14.5406 5.75892 14.7745 5.93432C15.0084 6.10971 15.1253 6.38499 15.1253 6.76015C15.1253 6.95017 15.0863 7.12556 15.0084 7.28635C14.9304 7.44226 14.8184 7.57624 14.6722 7.6883C14.5309 7.80036 14.3579 7.88806 14.1533 7.9514C13.9487 8.01474 13.7221 8.04641 13.4736 8.04641Z" fill="white"/>
<path d="M13.3939 2.69675C13.3939 2.45314 13.4646 2.268 13.6059 2.14132C13.7472 2.00977 13.9567 1.944 14.2344 1.944H15.7326V2.64559H14.1686V3.25949H13.3939V2.69675Z" fill="white"/>
<path d="M16.3597 6.41666H15.9431V5.66391H16.5131C16.6642 5.66391 16.7835 5.69558 16.8712 5.75892C16.9638 5.81738 17.0345 5.91726 17.0832 6.05856L17.4997 7.2498H17.7263C17.9017 7.2498 18.043 7.16211 18.1502 6.98671C18.2622 6.80644 18.3183 6.55796 18.3183 6.24126V5.59083C18.3183 5.27414 18.2306 5.02809 18.0552 4.85269C17.8798 4.67729 17.6362 4.58959 17.3243 4.58959C17.1636 4.58959 17.0198 4.61152 16.8932 4.65537C16.7714 4.69435 16.6617 4.7455 16.5643 4.80884C16.4668 4.87218 16.3816 4.94283 16.3085 5.02078C16.2403 5.09874 16.1818 5.17426 16.1331 5.24734L15.5557 4.73576C15.6288 4.61883 15.719 4.50677 15.8262 4.39958C15.9382 4.28752 16.0673 4.19008 16.2135 4.10725C16.3645 4.02442 16.5351 3.95865 16.7251 3.90992C16.9151 3.8612 17.1295 3.83684 17.3682 3.83684C17.6703 3.83684 17.9407 3.88556 18.1794 3.98301C18.4182 4.07558 18.6203 4.212 18.786 4.39227C18.9517 4.57254 19.0783 4.79179 19.166 5.05002C19.2537 5.30337 19.2976 5.59326 19.2976 5.9197C19.2976 6.23639 19.2586 6.52141 19.1806 6.77477C19.1076 7.02812 19.0004 7.2425 18.8591 7.4179C18.7227 7.59329 18.5546 7.72728 18.3548 7.81985C18.1551 7.91242 17.9334 7.95871 17.6898 7.95871H16.9078L16.3597 6.41666Z" fill="white"/>
<path d="M21.9625 7.95871V2.85753H24.2573C24.4911 2.85753 24.7006 2.89651 24.8858 2.97447C25.0758 3.04755 25.2366 3.15474 25.3681 3.29603C25.4997 3.43245 25.5996 3.59811 25.6678 3.79299C25.736 3.98788 25.7701 4.20226 25.7701 4.43612C25.7701 4.67486 25.736 4.89167 25.6678 5.08656C25.5996 5.27657 25.4997 5.44223 25.3681 5.58352C25.2366 5.71994 25.0758 5.82713 24.8858 5.90508C24.7006 5.97817 24.4911 6.01471 24.2573 6.01471H22.9272V7.95871H21.9625ZM22.9272 5.18156H24.1696C24.3547 5.18156 24.5009 5.13284 24.6081 5.0354C24.7153 4.93308 24.7689 4.78935 24.7689 4.60421V4.26803C24.7689 4.08289 24.7153 3.94159 24.6081 3.84415C24.5009 3.74671 24.3547 3.69799 24.1696 3.69799H22.9272V5.18156Z" fill="white"/>
<path d="M26.6443 7.95871V2.85753H30.0061V3.7126H27.609V4.9477H29.7284V5.80277H27.609V7.10364H30.0061V7.95871H26.6443Z" fill="white"/>
<path d="M34.1836 7.95871L33.7744 6.65784H31.9619L31.5599 7.95871H30.5806L32.2908 2.85753H33.4893L35.1848 7.95871H34.1836ZM32.8827 3.73453H32.8462L32.1958 5.832H33.5405L32.8827 3.73453Z" fill="white"/>
<path d="M38.8478 7.95871L37.1815 2.85753H38.1681L38.9501 5.34235L39.4032 7.03786H39.4251L39.8709 5.34235L40.6529 2.85753H41.6103L39.944 7.95871H38.8478Z" fill="white"/>
<path d="M44.1412 8.04641C43.805 8.04641 43.5005 7.99038 43.2277 7.87832C42.9548 7.76626 42.721 7.59817 42.5261 7.37405C42.336 7.14993 42.1874 6.87465 42.0803 6.54821C41.9731 6.22178 41.9195 5.84174 41.9195 5.40812C41.9195 4.97937 41.9731 4.60177 42.0803 4.27534C42.1874 3.94403 42.336 3.66632 42.5261 3.4422C42.721 3.21808 42.9548 3.04999 43.2277 2.93793C43.5005 2.82587 43.805 2.76983 44.1412 2.76983C44.4774 2.76983 44.7819 2.82587 45.0547 2.93793C45.3276 3.04999 45.5614 3.21808 45.7563 3.4422C45.9512 3.66632 46.0998 3.94403 46.2021 4.27534C46.3093 4.60177 46.3629 4.97937 46.3629 5.40812C46.3629 5.84174 46.3093 6.22178 46.2021 6.54821C46.0998 6.87465 45.9512 7.14993 45.7563 7.37405C45.5614 7.59817 45.3276 7.76626 45.0547 7.87832C44.7819 7.99038 44.4774 8.04641 44.1412 8.04641ZM44.1412 7.19134C44.5066 7.19134 44.7965 7.06953 45.0109 6.82593C45.2301 6.58232 45.3397 6.24126 45.3397 5.80277V5.01347C45.3397 4.57498 45.2301 4.23392 45.0109 3.99032C44.7965 3.74671 44.5066 3.6249 44.1412 3.6249C43.7758 3.6249 43.4834 3.74671 43.2642 3.99032C43.0498 4.23392 42.9426 4.57498 42.9426 5.01347V5.80277C42.9426 6.24126 43.0498 6.58232 43.2642 6.82593C43.4834 7.06953 43.7758 7.19134 44.1412 7.19134Z" fill="white"/>
<path d="M47.3416 7.95871V2.85753H48.3063V7.10364H50.3161V7.95871H47.3416Z" fill="white"/>
<path d="M52.6199 3.7126V7.95871H51.6552V3.7126H50.2082V2.85753H54.067V3.7126H52.6199Z" fill="white"/>
<path d="M57.5358 7.95871L57.1266 6.65784H55.3141L54.9122 7.95871H53.9328L55.643 2.85753H56.8415L58.5371 7.95871H57.5358ZM56.235 3.73453H56.1984L55.548 5.832H56.8927L56.235 3.73453Z" fill="white"/>
<path d="M60.9137 5.51774C60.9137 5.26439 60.9576 5.0354 61.0453 4.83077C61.133 4.62126 61.2597 4.44343 61.4253 4.29726C61.591 4.1511 61.7907 4.03904 62.0246 3.96108C62.2633 3.87826 62.5313 3.83684 62.8285 3.83684C63.1208 3.83684 63.3839 3.87826 63.6178 3.96108C63.8565 4.03904 64.0587 4.1511 64.2244 4.29726C64.39 4.44343 64.5167 4.62126 64.6044 4.83077C64.697 5.0354 64.7433 5.26439 64.7433 5.51774V7.95871H63.8078V5.5689C63.8078 5.25708 63.7201 5.01591 63.5447 4.84538C63.3742 4.67486 63.1354 4.58959 62.8285 4.58959C62.5216 4.58959 62.2804 4.67486 62.105 4.84538C61.9345 5.01591 61.8492 5.25708 61.8492 5.5689V6.46051H61.8857C61.9101 6.3582 61.9466 6.26075 61.9954 6.16818C62.0489 6.07074 62.1172 5.98547 62.2 5.91239C62.2828 5.83931 62.3803 5.78084 62.4923 5.73699C62.6092 5.68827 62.7432 5.66391 62.8943 5.66391H63.0989V6.54821H62.8066C62.4948 6.54821 62.256 6.59693 62.0904 6.69438C61.9296 6.78695 61.8492 6.94286 61.8492 7.16211V7.95871H60.9137V5.51774Z" fill="white"/>
<path d="M67.2365 8.04641C66.8565 8.04641 66.5325 7.98307 66.2645 7.85639C66.0014 7.72971 65.77 7.54944 65.5702 7.31558L66.1476 6.76746C66.2889 6.93798 66.4545 7.07197 66.6446 7.16941C66.8346 7.26198 67.0489 7.30827 67.2877 7.30827C67.5362 7.30827 67.714 7.26686 67.8212 7.18403C67.9333 7.1012 67.9893 6.98671 67.9893 6.84054C67.9893 6.69438 67.9454 6.58719 67.8577 6.51898C67.77 6.44589 67.6385 6.39717 67.4631 6.37281L67.0684 6.32165C66.8687 6.29729 66.686 6.25588 66.5203 6.19741C66.3547 6.13895 66.2109 6.06099 66.0891 5.96355C65.9722 5.86611 65.8796 5.74674 65.8114 5.60544C65.7481 5.46415 65.7164 5.2985 65.7164 5.10848C65.7164 4.91359 65.7529 4.7382 65.826 4.58229C65.904 4.4215 66.0087 4.28752 66.1403 4.18033C66.2767 4.06827 66.4375 3.98301 66.6226 3.92454C66.8126 3.86608 67.0221 3.83684 67.2511 3.83684C67.6263 3.83684 67.9332 3.89287 68.172 4.00493C68.4107 4.11699 68.6251 4.27047 68.8151 4.46535L68.2597 5.02078C68.1476 4.89411 68.0039 4.78935 67.8285 4.70653C67.6531 4.61883 67.4631 4.57498 67.2584 4.57498C67.0392 4.57498 66.876 4.61883 66.7688 4.70653C66.6665 4.78935 66.6153 4.90141 66.6153 5.04271C66.6153 5.184 66.6592 5.29362 66.7469 5.37158C66.8394 5.44466 66.988 5.49582 67.1927 5.52505L67.5873 5.58352C67.9868 5.64198 68.3035 5.75892 68.5374 5.93432C68.7713 6.10971 68.8882 6.38499 68.8882 6.76015C68.8882 6.95017 68.8492 7.12556 68.7713 7.28635C68.6933 7.44226 68.5812 7.57624 68.4351 7.6883C68.2938 7.80036 68.1208 7.88806 67.9162 7.9514C67.7116 8.01474 67.485 8.04641 67.2365 8.04641Z" fill="white"/>
<path d="M67.9753 3.25949C67.6976 3.25949 67.4881 3.19371 67.3468 3.06217C67.2055 2.93062 67.1349 2.74304 67.1349 2.49943V1.944H67.9096V2.55059H69.839V3.25949H67.9753Z" fill="white"/>
<path d="M67.4711 1.03777H67.9315V0.789293C67.9315 0.706467 67.912 0.645564 67.873 0.606587C67.8292 0.567609 67.7561 0.548121 67.6538 0.548121H67.4711V0H67.968C68.1775 0 68.3383 0.0462858 68.4504 0.138858C68.5576 0.226557 68.6112 0.345925 68.6112 0.496963C68.6112 0.594406 68.5844 0.689414 68.5308 0.781985C68.4723 0.874557 68.3943 0.945203 68.2969 0.993925V1.03777H69.437V1.5859H67.4711V1.03777Z" fill="white"/>
<path d="M69.2483 5.06463H70.1765L71.1119 7.21326H71.1411C71.3506 7.21326 71.5139 7.13044 71.6308 6.96478C71.7477 6.79913 71.8062 6.5677 71.8062 6.2705V5.62006C71.8062 5.32286 71.7477 5.09143 71.6308 4.92578C71.5139 4.76012 71.3506 4.67729 71.1411 4.67729H70.8561V3.92454H71.1484C71.6649 3.92454 72.0669 4.10238 72.3543 4.45805C72.6418 4.80884 72.7855 5.30337 72.7855 5.94162C72.7855 6.57988 72.6418 7.07684 72.3543 7.43251C72.0669 7.78331 71.6649 7.95871 71.1484 7.95871H70.5126L69.2483 5.06463Z" fill="white"/>
<path d="M76.7309 7.95871C76.4093 7.95871 76.173 7.87832 76.022 7.71753C75.8709 7.55675 75.7954 7.3302 75.7954 7.03786V3.92454H76.7309V7.21326H77.2644V7.95871H76.7309ZM74.7357 7.95871C74.4142 7.95871 74.1779 7.87832 74.0268 7.71753C73.8758 7.55675 73.8003 7.3302 73.8003 7.03786V3.92454H74.7357V7.21326H75.2692V7.95871H74.7357Z" fill="white"/>
<path d="M79.4693 8.04641C79.0893 8.04641 78.7653 7.98307 78.4973 7.85639C78.2342 7.72971 78.0028 7.54944 77.803 7.31558L78.3804 6.76746C78.5217 6.93798 78.6873 7.07197 78.8773 7.16941C79.0674 7.26198 79.2817 7.30827 79.5205 7.30827C79.769 7.30827 79.9468 7.26686 80.054 7.18403C80.166 7.1012 80.2221 6.98671 80.2221 6.84054C80.2221 6.69438 80.1782 6.58719 80.0905 6.51898C80.0028 6.44589 79.8713 6.39717 79.6959 6.37281L79.3012 6.32165C79.1015 6.29729 78.9188 6.25588 78.7531 6.19741C78.5874 6.13895 78.4437 6.06099 78.3219 5.96355C78.205 5.86611 78.1124 5.74674 78.0442 5.60544C77.9809 5.46415 77.9492 5.2985 77.9492 5.10848C77.9492 4.91359 77.9857 4.7382 78.0588 4.58229C78.1368 4.4215 78.2415 4.28752 78.3731 4.18033C78.5095 4.06827 78.6703 3.98301 78.8554 3.92454C79.0454 3.86608 79.2549 3.83684 79.4839 3.83684C79.8591 3.83684 80.166 3.89287 80.4048 4.00493C80.6435 4.11699 80.8579 4.27047 81.0479 4.46535L80.4925 5.02078C80.3804 4.89411 80.2367 4.78935 80.0613 4.70653C79.8859 4.61883 79.6959 4.57498 79.4912 4.57498C79.272 4.57498 79.1088 4.61883 79.0016 4.70653C78.8993 4.78935 78.8481 4.90141 78.8481 5.04271C78.8481 5.184 78.892 5.29362 78.9797 5.37158C79.0722 5.44466 79.2208 5.49582 79.4255 5.52505L79.8201 5.58352C80.2196 5.64198 80.5363 5.75892 80.7702 5.93432C81.0041 6.10971 81.121 6.38499 81.121 6.76015C81.121 6.95017 81.082 7.12556 81.0041 7.28635C80.9261 7.44226 80.814 7.57624 80.6679 7.6883C80.5266 7.80036 80.3536 7.88806 80.149 7.9514C79.9444 8.01474 79.7178 8.04641 79.4693 8.04641Z" fill="white"/>
<path d="M82.3553 5.78815L81.7268 5.53236C81.7463 5.27901 81.8072 5.04758 81.9095 4.83808C82.0118 4.62857 82.1483 4.45074 82.3188 4.30457C82.4942 4.15353 82.6988 4.03904 82.9327 3.96108C83.1714 3.87826 83.4296 3.83684 83.7074 3.83684C83.9997 3.83684 84.2604 3.87582 84.4893 3.95377C84.7232 4.03173 84.9205 4.14379 85.0813 4.28996C85.2421 4.43612 85.3639 4.61396 85.4467 4.82346C85.5344 5.02809 85.5783 5.25708 85.5783 5.51044V7.95871H84.6428V5.63468C84.6428 5.2985 84.5576 5.04027 84.387 4.86C84.2165 4.67973 83.9705 4.58959 83.6489 4.58959C83.3955 4.58959 83.1739 4.64562 82.9838 4.75768C82.7987 4.86487 82.6696 5.00617 82.5965 5.18156L82.8815 5.29119C83.0374 5.34965 83.1446 5.41786 83.2031 5.49582C83.2616 5.57377 83.2908 5.69071 83.2908 5.84662V7.95871H82.3553V5.78815Z" fill="white"/>
</g>
<defs>
<filter id="filter0_d_40024170_29612" x="0" y="0" width="89.5784" height="16.0464" filterUnits="userSpaceOnUse" color-interpolation-filters="sRGB">
<feFlood flood-opacity="0" result="BackgroundImageFix"/>
<feColorMatrix in="SourceAlpha" type="matrix" values="0 0 0 0 0 0 0 0 0 0 0 0 0 0 0 0 0 0 127 0" result="hardAlpha"/>
<feOffset dy="4"/>
<feGaussianBlur stdDeviation="2"/>
<feComposite in2="hardAlpha" operator="out"/>
<feColorMatrix type="matrix" values="0 0 0 0 0 0 0 0 0 0 0 0 0 0 0 0 0 0 0.25 0"/>
<feBlend mode="normal" in2="BackgroundImageFix" result="effect1_dropShadow_40024170_29612"/>
<feBlend mode="normal" in="SourceGraphic" in2="effect1_dropShadow_40024170_29612" result="shape"/>
</filter>
</defs>
</svg>
