<svg width="44" height="44" viewBox="0 0 44 44" fill="none" xmlns="http://www.w3.org/2000/svg">
<g clip-path="url(#clip0_40024170_6779)">
<g filter="url(#filter0_di_40024170_6779)">
<path d="M5 8C5 5.79086 6.79086 4 9 4H33C35.2091 4 37 5.79086 37 8V28C37 30.2091 35.2091 32 33 32H9C6.79086 32 5 30.2091 5 28V8Z" fill="url(#paint0_radial_40024170_6779)"/>
</g>
<g filter="url(#filter1_ddi_40024170_6779)">
<g filter="url(#filter2_ddi_40024170_6779)">
<path d="M14.213 16.835C14.0055 16.6274 14.0055 16.2921 14.213 16.0846L18.231 12.0667C18.7046 11.593 19.4337 11.4653 20.0404 11.7527L23.2121 13.2428C23.409 13.3386 23.6538 13.296 23.8135 13.1363L27.7942 9.15567C28.0017 8.94811 28.3423 8.94811 28.5499 9.15567C28.7574 9.36319 28.7574 9.69847 28.5499 9.90602L24.5639 13.892C24.0902 14.3657 23.3612 14.4934 22.7545 14.206L19.588 12.7159C19.3858 12.6201 19.141 12.6627 18.9814 12.817L14.9687 16.835C14.8623 16.9414 14.7292 16.9893 14.5909 16.9893C14.4525 16.9893 14.3195 16.9414 14.213 16.835Z" fill="#D9D9D9"/>
<path d="M14.213 16.835C14.0055 16.6274 14.0055 16.2921 14.213 16.0846L18.231 12.0667C18.7046 11.593 19.4337 11.4653 20.0404 11.7527L23.2121 13.2428C23.409 13.3386 23.6538 13.296 23.8135 13.1363L27.7942 9.15567C28.0017 8.94811 28.3423 8.94811 28.5499 9.15567C28.7574 9.36319 28.7574 9.69847 28.5499 9.90602L24.5639 13.892C24.0902 14.3657 23.3612 14.4934 22.7545 14.206L19.588 12.7159C19.3858 12.6201 19.141 12.6627 18.9814 12.817L14.9687 16.835C14.8623 16.9414 14.7292 16.9893 14.5909 16.9893C14.4525 16.9893 14.3195 16.9414 14.213 16.835Z" fill="url(#paint1_linear_40024170_6779)"/>
</g>
<g filter="url(#filter3_ddi_40024170_6779)">
<g filter="url(#filter4_ddi_40024170_6779)">
<path d="M20.7167 18.3515V24.9505C20.7167 25.5412 20.2378 26.0148 19.6524 26.0148H18.588C18.0027 26.0148 17.5237 25.5412 17.5237 24.9505V18.3515C17.5237 17.7661 18.0027 17.2871 18.588 17.2871H19.6524C20.2378 17.2871 20.7167 17.7661 20.7167 18.3515Z" fill="#D9D9D9"/>
<path d="M20.7167 18.3515V24.9505C20.7167 25.5412 20.2378 26.0148 19.6524 26.0148H18.588C18.0027 26.0148 17.5237 25.5412 17.5237 24.9505V18.3515C17.5237 17.7661 18.0027 17.2871 18.588 17.2871H19.6524C20.2378 17.2871 20.7167 17.7661 20.7167 18.3515Z" fill="url(#paint2_linear_40024170_6779)"/>
</g>
<g filter="url(#filter5_ddi_40024170_6779)">
<path d="M29.7636 14.6156V24.9505C29.7636 25.5412 29.2847 26.0149 28.6993 26.0149H27.6349C27.0495 26.0149 26.5706 25.5412 26.5706 24.9505V14.6156C26.5706 14.0302 27.0495 13.5513 27.6349 13.5513H28.6993C29.2847 13.5513 29.7636 14.0302 29.7636 14.6156Z" fill="#D9D9D9"/>
<path d="M29.7636 14.6156V24.9505C29.7636 25.5412 29.2847 26.0149 28.6993 26.0149H27.6349C27.0495 26.0149 26.5706 25.5412 26.5706 24.9505V14.6156C26.5706 14.0302 27.0495 13.5513 27.6349 13.5513H28.6993C29.2847 13.5513 29.7636 14.0302 29.7636 14.6156Z" fill="url(#paint3_linear_40024170_6779)"/>
</g>
<g filter="url(#filter6_ddi_40024170_6779)">
<path d="M16.1931 23.1093V24.9506C16.1931 25.5413 15.7141 26.015 15.1287 26.015H14.0644C13.479 26.015 13 25.5413 13 24.9506V23.1093C13 22.5239 13.479 22.0449 14.0644 22.0449H15.1287C15.7141 22.0449 16.1931 22.5239 16.1931 23.1093Z" fill="#D9D9D9"/>
<path d="M16.1931 23.1093V24.9506C16.1931 25.5413 15.7141 26.015 15.1287 26.015H14.0644C13.479 26.015 13 25.5413 13 24.9506V23.1093C13 22.5239 13.479 22.0449 14.0644 22.0449H15.1287C15.7141 22.0449 16.1931 22.5239 16.1931 23.1093Z" fill="url(#paint4_linear_40024170_6779)"/>
</g>
<g filter="url(#filter7_ddi_40024170_6779)">
<path d="M25.2402 20.2035V24.9506C25.2402 25.5413 24.7612 26.0149 24.1758 26.0149H23.1115C22.5261 26.0149 22.0471 25.5413 22.0471 24.9506V20.2035C22.0471 19.6181 22.5261 19.1392 23.1115 19.1392H24.1758C24.7612 19.1392 25.2402 19.6181 25.2402 20.2035Z" fill="#D9D9D9"/>
<path d="M25.2402 20.2035V24.9506C25.2402 25.5413 24.7612 26.0149 24.1758 26.0149H23.1115C22.5261 26.0149 22.0471 25.5413 22.0471 24.9506V20.2035C22.0471 19.6181 22.5261 19.1392 23.1115 19.1392H24.1758C24.7612 19.1392 25.2402 19.6181 25.2402 20.2035Z" fill="url(#paint5_linear_40024170_6779)"/>
</g>
</g>
</g>
<g filter="url(#filter8_di_40024170_6779)">
<path d="M23.3893 22.3882C26.5768 19.2039 31.7424 19.204 34.9299 22.3882C37.6642 25.1224 38.0485 29.3127 36.0954 32.4594C36.1142 32.4282 36.1334 32.3999 36.1521 32.3718C37.8833 33.3687 39.6269 34.6565 40.18 35.2095C41.2737 36.3064 41.2737 38.0814 40.18 39.1782C39.0863 40.2719 37.3051 40.2749 36.2114 39.1813C35.5895 38.5595 34.2736 36.719 33.3705 35.1503C30.2331 37.0439 26.0986 36.6347 23.3893 33.9287C20.2051 30.7413 20.202 25.5787 23.3893 22.3882Z" fill="url(#paint6_linear_40024170_6779)"/>
</g>
<foreignObject x="21.9355" y="20.9355" width="14.2581" height="14.2583"><div xmlns="http://www.w3.org/1999/xhtml" style="backdrop-filter:blur(0.5px);clip-path:url(#bgblur_1_40024170_6779_clip_path);height:100%;width:100%"></div></foreignObject><path data-figma-bg-blur-radius="1" d="M35.1937 28.0646C35.1937 31.4496 32.4496 34.1937 29.0646 34.1937C25.6796 34.1937 22.9355 31.4496 22.9355 28.0646C22.9355 24.6796 25.6796 21.9355 29.0646 21.9355C32.4496 21.9355 35.1937 24.6796 35.1937 28.0646Z" fill="url(#paint7_linear_40024170_6779)"/>
</g>
<defs>
<filter id="filter0_di_40024170_6779" x="1" y="4" width="40" height="36" filterUnits="userSpaceOnUse" color-interpolation-filters="sRGB">
<feFlood flood-opacity="0" result="BackgroundImageFix"/>
<feColorMatrix in="SourceAlpha" type="matrix" values="0 0 0 0 0 0 0 0 0 0 0 0 0 0 0 0 0 0 127 0" result="hardAlpha"/>
<feOffset dy="4"/>
<feGaussianBlur stdDeviation="2"/>
<feComposite in2="hardAlpha" operator="out"/>
<feColorMatrix type="matrix" values="0 0 0 0 0.934965 0 0 0 0 0.694218 0 0 0 0 0.890427 0 0 0 0.2 0"/>
<feBlend mode="normal" in2="BackgroundImageFix" result="effect1_dropShadow_40024170_6779"/>
<feBlend mode="normal" in="SourceGraphic" in2="effect1_dropShadow_40024170_6779" result="shape"/>
<feColorMatrix in="SourceAlpha" type="matrix" values="0 0 0 0 0 0 0 0 0 0 0 0 0 0 0 0 0 0 127 0" result="hardAlpha"/>
<feOffset dy="1"/>
<feGaussianBlur stdDeviation="2"/>
<feComposite in2="hardAlpha" operator="arithmetic" k2="-1" k3="1"/>
<feColorMatrix type="matrix" values="0 0 0 0 1 0 0 0 0 1 0 0 0 0 1 0 0 0 0.5 0"/>
<feBlend mode="normal" in2="shape" result="effect2_innerShadow_40024170_6779"/>
</filter>
<filter id="filter1_ddi_40024170_6779" x="3" y="3" width="36.7637" height="37.0151" filterUnits="userSpaceOnUse" color-interpolation-filters="sRGB">
<feFlood flood-opacity="0" result="BackgroundImageFix"/>
<feColorMatrix in="SourceAlpha" type="matrix" values="0 0 0 0 0 0 0 0 0 0 0 0 0 0 0 0 0 0 127 0" result="hardAlpha"/>
<feOffset dy="4"/>
<feGaussianBlur stdDeviation="5"/>
<feComposite in2="hardAlpha" operator="out"/>
<feColorMatrix type="matrix" values="0 0 0 0 0.443641 0 0 0 0 0.112793 0 0 0 0 0.380331 0 0 0 0.25 0"/>
<feBlend mode="normal" in2="BackgroundImageFix" result="effect1_dropShadow_40024170_6779"/>
<feColorMatrix in="SourceAlpha" type="matrix" values="0 0 0 0 0 0 0 0 0 0 0 0 0 0 0 0 0 0 127 0" result="hardAlpha"/>
<feOffset dy="4"/>
<feGaussianBlur stdDeviation="2"/>
<feComposite in2="hardAlpha" operator="out"/>
<feColorMatrix type="matrix" values="0 0 0 0 0.667912 0 0 0 0 0.0278715 0 0 0 0 0.545435 0 0 0 0.6 0"/>
<feBlend mode="normal" in2="effect1_dropShadow_40024170_6779" result="effect2_dropShadow_40024170_6779"/>
<feBlend mode="normal" in="SourceGraphic" in2="effect2_dropShadow_40024170_6779" result="shape"/>
<feColorMatrix in="SourceAlpha" type="matrix" values="0 0 0 0 0 0 0 0 0 0 0 0 0 0 0 0 0 0 127 0" result="hardAlpha"/>
<feOffset/>
<feGaussianBlur stdDeviation="4"/>
<feComposite in2="hardAlpha" operator="arithmetic" k2="-1" k3="1"/>
<feColorMatrix type="matrix" values="0 0 0 0 1 0 0 0 0 0.880052 0 0 0 0 0.97781 0 0 0 1 0"/>
<feBlend mode="normal" in2="shape" result="effect3_innerShadow_40024170_6779"/>
</filter>
<filter id="filter2_ddi_40024170_6779" x="12.0574" y="8" width="18.6482" height="11.9893" filterUnits="userSpaceOnUse" color-interpolation-filters="sRGB">
<feFlood flood-opacity="0" result="BackgroundImageFix"/>
<feColorMatrix in="SourceAlpha" type="matrix" values="0 0 0 0 0 0 0 0 0 0 0 0 0 0 0 0 0 0 127 0" result="hardAlpha"/>
<feOffset dy="1"/>
<feGaussianBlur stdDeviation="1"/>
<feComposite in2="hardAlpha" operator="out"/>
<feColorMatrix type="matrix" values="0 0 0 0 0.443641 0 0 0 0 0.112793 0 0 0 0 0.380331 0 0 0 0.25 0"/>
<feBlend mode="normal" in2="BackgroundImageFix" result="effect1_dropShadow_40024170_6779"/>
<feColorMatrix in="SourceAlpha" type="matrix" values="0 0 0 0 0 0 0 0 0 0 0 0 0 0 0 0 0 0 127 0" result="hardAlpha"/>
<feOffset/>
<feGaussianBlur stdDeviation="0.5"/>
<feComposite in2="hardAlpha" operator="out"/>
<feColorMatrix type="matrix" values="0 0 0 0 0.511362 0 0 0 0 0 0 0 0 0 0.413509 0 0 0 0.5 0"/>
<feBlend mode="normal" in2="effect1_dropShadow_40024170_6779" result="effect2_dropShadow_40024170_6779"/>
<feBlend mode="normal" in="SourceGraphic" in2="effect2_dropShadow_40024170_6779" result="shape"/>
<feColorMatrix in="SourceAlpha" type="matrix" values="0 0 0 0 0 0 0 0 0 0 0 0 0 0 0 0 0 0 127 0" result="hardAlpha"/>
<feOffset/>
<feGaussianBlur stdDeviation="0.5"/>
<feComposite in2="hardAlpha" operator="arithmetic" k2="-1" k3="1"/>
<feColorMatrix type="matrix" values="0 0 0 0 1 0 0 0 0 1 0 0 0 0 1 0 0 0 1 0"/>
<feBlend mode="normal" in2="shape" result="effect3_innerShadow_40024170_6779"/>
</filter>
<filter id="filter3_ddi_40024170_6779" x="3" y="7.55127" width="36.7637" height="32.4639" filterUnits="userSpaceOnUse" color-interpolation-filters="sRGB">
<feFlood flood-opacity="0" result="BackgroundImageFix"/>
<feColorMatrix in="SourceAlpha" type="matrix" values="0 0 0 0 0 0 0 0 0 0 0 0 0 0 0 0 0 0 127 0" result="hardAlpha"/>
<feOffset dy="4"/>
<feGaussianBlur stdDeviation="5"/>
<feComposite in2="hardAlpha" operator="out"/>
<feColorMatrix type="matrix" values="0 0 0 0 0.443641 0 0 0 0 0.112793 0 0 0 0 0.380331 0 0 0 0.25 0"/>
<feBlend mode="normal" in2="BackgroundImageFix" result="effect1_dropShadow_40024170_6779"/>
<feColorMatrix in="SourceAlpha" type="matrix" values="0 0 0 0 0 0 0 0 0 0 0 0 0 0 0 0 0 0 127 0" result="hardAlpha"/>
<feOffset dy="4"/>
<feGaussianBlur stdDeviation="4"/>
<feComposite in2="hardAlpha" operator="out"/>
<feColorMatrix type="matrix" values="0 0 0 0 0.667912 0 0 0 0 0.0278715 0 0 0 0 0.545435 0 0 0 0.6 0"/>
<feBlend mode="normal" in2="effect1_dropShadow_40024170_6779" result="effect2_dropShadow_40024170_6779"/>
<feBlend mode="normal" in="SourceGraphic" in2="effect2_dropShadow_40024170_6779" result="shape"/>
<feColorMatrix in="SourceAlpha" type="matrix" values="0 0 0 0 0 0 0 0 0 0 0 0 0 0 0 0 0 0 127 0" result="hardAlpha"/>
<feOffset/>
<feGaussianBlur stdDeviation="4"/>
<feComposite in2="hardAlpha" operator="arithmetic" k2="-1" k3="1"/>
<feColorMatrix type="matrix" values="0 0 0 0 1 0 0 0 0 0.880052 0 0 0 0 0.97781 0 0 0 1 0"/>
<feBlend mode="normal" in2="shape" result="effect3_innerShadow_40024170_6779"/>
</filter>
<filter id="filter4_ddi_40024170_6779" x="15.5237" y="16.2871" width="7.19312" height="12.7275" filterUnits="userSpaceOnUse" color-interpolation-filters="sRGB">
<feFlood flood-opacity="0" result="BackgroundImageFix"/>
<feColorMatrix in="SourceAlpha" type="matrix" values="0 0 0 0 0 0 0 0 0 0 0 0 0 0 0 0 0 0 127 0" result="hardAlpha"/>
<feOffset dy="1"/>
<feGaussianBlur stdDeviation="1"/>
<feComposite in2="hardAlpha" operator="out"/>
<feColorMatrix type="matrix" values="0 0 0 0 0.443641 0 0 0 0 0.112793 0 0 0 0 0.380331 0 0 0 0.25 0"/>
<feBlend mode="normal" in2="BackgroundImageFix" result="effect1_dropShadow_40024170_6779"/>
<feColorMatrix in="SourceAlpha" type="matrix" values="0 0 0 0 0 0 0 0 0 0 0 0 0 0 0 0 0 0 127 0" result="hardAlpha"/>
<feOffset/>
<feGaussianBlur stdDeviation="0.5"/>
<feComposite in2="hardAlpha" operator="out"/>
<feColorMatrix type="matrix" values="0 0 0 0 0.511362 0 0 0 0 0 0 0 0 0 0.413509 0 0 0 0.5 0"/>
<feBlend mode="normal" in2="effect1_dropShadow_40024170_6779" result="effect2_dropShadow_40024170_6779"/>
<feBlend mode="normal" in="SourceGraphic" in2="effect2_dropShadow_40024170_6779" result="shape"/>
<feColorMatrix in="SourceAlpha" type="matrix" values="0 0 0 0 0 0 0 0 0 0 0 0 0 0 0 0 0 0 127 0" result="hardAlpha"/>
<feOffset/>
<feGaussianBlur stdDeviation="0.5"/>
<feComposite in2="hardAlpha" operator="arithmetic" k2="-1" k3="1"/>
<feColorMatrix type="matrix" values="0 0 0 0 1 0 0 0 0 1 0 0 0 0 1 0 0 0 1 0"/>
<feBlend mode="normal" in2="shape" result="effect3_innerShadow_40024170_6779"/>
</filter>
<filter id="filter5_ddi_40024170_6779" x="24.5706" y="12.5513" width="7.19312" height="16.4634" filterUnits="userSpaceOnUse" color-interpolation-filters="sRGB">
<feFlood flood-opacity="0" result="BackgroundImageFix"/>
<feColorMatrix in="SourceAlpha" type="matrix" values="0 0 0 0 0 0 0 0 0 0 0 0 0 0 0 0 0 0 127 0" result="hardAlpha"/>
<feOffset dy="1"/>
<feGaussianBlur stdDeviation="1"/>
<feComposite in2="hardAlpha" operator="out"/>
<feColorMatrix type="matrix" values="0 0 0 0 0.443641 0 0 0 0 0.112793 0 0 0 0 0.380331 0 0 0 0.25 0"/>
<feBlend mode="normal" in2="BackgroundImageFix" result="effect1_dropShadow_40024170_6779"/>
<feColorMatrix in="SourceAlpha" type="matrix" values="0 0 0 0 0 0 0 0 0 0 0 0 0 0 0 0 0 0 127 0" result="hardAlpha"/>
<feOffset/>
<feGaussianBlur stdDeviation="0.5"/>
<feComposite in2="hardAlpha" operator="out"/>
<feColorMatrix type="matrix" values="0 0 0 0 0.511362 0 0 0 0 0 0 0 0 0 0.413509 0 0 0 0.5 0"/>
<feBlend mode="normal" in2="effect1_dropShadow_40024170_6779" result="effect2_dropShadow_40024170_6779"/>
<feBlend mode="normal" in="SourceGraphic" in2="effect2_dropShadow_40024170_6779" result="shape"/>
<feColorMatrix in="SourceAlpha" type="matrix" values="0 0 0 0 0 0 0 0 0 0 0 0 0 0 0 0 0 0 127 0" result="hardAlpha"/>
<feOffset/>
<feGaussianBlur stdDeviation="0.5"/>
<feComposite in2="hardAlpha" operator="arithmetic" k2="-1" k3="1"/>
<feColorMatrix type="matrix" values="0 0 0 0 1 0 0 0 0 1 0 0 0 0 1 0 0 0 1 0"/>
<feBlend mode="normal" in2="shape" result="effect3_innerShadow_40024170_6779"/>
</filter>
<filter id="filter6_ddi_40024170_6779" x="11" y="21.0449" width="7.19312" height="7.97021" filterUnits="userSpaceOnUse" color-interpolation-filters="sRGB">
<feFlood flood-opacity="0" result="BackgroundImageFix"/>
<feColorMatrix in="SourceAlpha" type="matrix" values="0 0 0 0 0 0 0 0 0 0 0 0 0 0 0 0 0 0 127 0" result="hardAlpha"/>
<feOffset dy="1"/>
<feGaussianBlur stdDeviation="1"/>
<feComposite in2="hardAlpha" operator="out"/>
<feColorMatrix type="matrix" values="0 0 0 0 0.443641 0 0 0 0 0.112793 0 0 0 0 0.380331 0 0 0 0.25 0"/>
<feBlend mode="normal" in2="BackgroundImageFix" result="effect1_dropShadow_40024170_6779"/>
<feColorMatrix in="SourceAlpha" type="matrix" values="0 0 0 0 0 0 0 0 0 0 0 0 0 0 0 0 0 0 127 0" result="hardAlpha"/>
<feOffset/>
<feGaussianBlur stdDeviation="0.5"/>
<feComposite in2="hardAlpha" operator="out"/>
<feColorMatrix type="matrix" values="0 0 0 0 0.511362 0 0 0 0 0 0 0 0 0 0.413509 0 0 0 0.5 0"/>
<feBlend mode="normal" in2="effect1_dropShadow_40024170_6779" result="effect2_dropShadow_40024170_6779"/>
<feBlend mode="normal" in="SourceGraphic" in2="effect2_dropShadow_40024170_6779" result="shape"/>
<feColorMatrix in="SourceAlpha" type="matrix" values="0 0 0 0 0 0 0 0 0 0 0 0 0 0 0 0 0 0 127 0" result="hardAlpha"/>
<feOffset/>
<feGaussianBlur stdDeviation="0.5"/>
<feComposite in2="hardAlpha" operator="arithmetic" k2="-1" k3="1"/>
<feColorMatrix type="matrix" values="0 0 0 0 1 0 0 0 0 1 0 0 0 0 1 0 0 0 1 0"/>
<feBlend mode="normal" in2="shape" result="effect3_innerShadow_40024170_6779"/>
</filter>
<filter id="filter7_ddi_40024170_6779" x="20.0471" y="18.1392" width="7.19312" height="10.876" filterUnits="userSpaceOnUse" color-interpolation-filters="sRGB">
<feFlood flood-opacity="0" result="BackgroundImageFix"/>
<feColorMatrix in="SourceAlpha" type="matrix" values="0 0 0 0 0 0 0 0 0 0 0 0 0 0 0 0 0 0 127 0" result="hardAlpha"/>
<feOffset dy="1"/>
<feGaussianBlur stdDeviation="1"/>
<feComposite in2="hardAlpha" operator="out"/>
<feColorMatrix type="matrix" values="0 0 0 0 0.443641 0 0 0 0 0.112793 0 0 0 0 0.380331 0 0 0 0.25 0"/>
<feBlend mode="normal" in2="BackgroundImageFix" result="effect1_dropShadow_40024170_6779"/>
<feColorMatrix in="SourceAlpha" type="matrix" values="0 0 0 0 0 0 0 0 0 0 0 0 0 0 0 0 0 0 127 0" result="hardAlpha"/>
<feOffset/>
<feGaussianBlur stdDeviation="0.5"/>
<feComposite in2="hardAlpha" operator="out"/>
<feColorMatrix type="matrix" values="0 0 0 0 0.511362 0 0 0 0 0 0 0 0 0 0.413509 0 0 0 0.5 0"/>
<feBlend mode="normal" in2="effect1_dropShadow_40024170_6779" result="effect2_dropShadow_40024170_6779"/>
<feBlend mode="normal" in="SourceGraphic" in2="effect2_dropShadow_40024170_6779" result="shape"/>
<feColorMatrix in="SourceAlpha" type="matrix" values="0 0 0 0 0 0 0 0 0 0 0 0 0 0 0 0 0 0 127 0" result="hardAlpha"/>
<feOffset/>
<feGaussianBlur stdDeviation="0.5"/>
<feComposite in2="hardAlpha" operator="arithmetic" k2="-1" k3="1"/>
<feColorMatrix type="matrix" values="0 0 0 0 1 0 0 0 0 1 0 0 0 0 1 0 0 0 1 0"/>
<feBlend mode="normal" in2="shape" result="effect3_innerShadow_40024170_6779"/>
</filter>
<filter id="filter8_di_40024170_6779" x="17" y="17" width="28.0002" height="28" filterUnits="userSpaceOnUse" color-interpolation-filters="sRGB">
<feFlood flood-opacity="0" result="BackgroundImageFix"/>
<feColorMatrix in="SourceAlpha" type="matrix" values="0 0 0 0 0 0 0 0 0 0 0 0 0 0 0 0 0 0 127 0" result="hardAlpha"/>
<feOffset dy="1"/>
<feGaussianBlur stdDeviation="2"/>
<feComposite in2="hardAlpha" operator="out"/>
<feColorMatrix type="matrix" values="0 0 0 0 0.901961 0 0 0 0 0.705882 0 0 0 0 0.278431 0 0 0 0.3 0"/>
<feBlend mode="normal" in2="BackgroundImageFix" result="effect1_dropShadow_40024170_6779"/>
<feBlend mode="normal" in="SourceGraphic" in2="effect1_dropShadow_40024170_6779" result="shape"/>
<feColorMatrix in="SourceAlpha" type="matrix" values="0 0 0 0 0 0 0 0 0 0 0 0 0 0 0 0 0 0 127 0" result="hardAlpha"/>
<feOffset/>
<feGaussianBlur stdDeviation="1"/>
<feComposite in2="hardAlpha" operator="arithmetic" k2="-1" k3="1"/>
<feColorMatrix type="matrix" values="0 0 0 0 1 0 0 0 0 1 0 0 0 0 1 0 0 0 0.7 0"/>
<feBlend mode="normal" in2="shape" result="effect2_innerShadow_40024170_6779"/>
</filter>
<clipPath id="bgblur_1_40024170_6779_clip_path" transform="translate(-21.9355 -20.9355)"><path d="M35.1937 28.0646C35.1937 31.4496 32.4496 34.1937 29.0646 34.1937C25.6796 34.1937 22.9355 31.4496 22.9355 28.0646C22.9355 24.6796 25.6796 21.9355 29.0646 21.9355C32.4496 21.9355 35.1937 24.6796 35.1937 28.0646Z"/>
</clipPath><radialGradient id="paint0_radial_40024170_6779" cx="0" cy="0" r="1" gradientUnits="userSpaceOnUse" gradientTransform="translate(20.828 3.43548) rotate(90) scale(21.2258 46.6387)">
<stop stop-color="#FB8EE7"/>
<stop offset="1" stop-color="#A80689"/>
</radialGradient>
<linearGradient id="paint1_linear_40024170_6779" x1="23.8144" y1="13.5809" x2="23.8144" y2="18.0594" gradientUnits="userSpaceOnUse">
<stop stop-color="white"/>
<stop offset="1"/>
</linearGradient>
<linearGradient id="paint2_linear_40024170_6779" x1="19.6506" y1="22.2914" x2="19.6506" y2="27.1838" gradientUnits="userSpaceOnUse">
<stop stop-color="white"/>
<stop offset="1"/>
</linearGradient>
<linearGradient id="paint3_linear_40024170_6779" x1="28.6974" y1="20.6977" x2="28.6974" y2="27.6842" gradientUnits="userSpaceOnUse">
<stop stop-color="white"/>
<stop offset="1"/>
</linearGradient>
<linearGradient id="paint4_linear_40024170_6779" x1="15.1269" y1="24.3213" x2="15.1269" y2="26.5467" gradientUnits="userSpaceOnUse">
<stop stop-color="white"/>
<stop offset="1"/>
</linearGradient>
<linearGradient id="paint5_linear_40024170_6779" x1="24.174" y1="23.0816" x2="24.174" y2="26.9358" gradientUnits="userSpaceOnUse">
<stop stop-color="white"/>
<stop offset="1"/>
</linearGradient>
<linearGradient id="paint6_linear_40024170_6779" x1="34.1552" y1="32.8012" x2="33.4531" y2="14.754" gradientUnits="userSpaceOnUse">
<stop offset="0.002" stop-color="#E6B447"/>
<stop offset="1" stop-color="#FA66DD"/>
</linearGradient>
<linearGradient id="paint7_linear_40024170_6779" x1="23.5807" y1="22.5805" x2="35.1937" y2="34.8387" gradientUnits="userSpaceOnUse">
<stop stop-color="white"/>
<stop offset="1" stop-color="white" stop-opacity="0.2"/>
</linearGradient>
<clipPath id="clip0_40024170_6779">
<rect width="44" height="44" fill="white"/>
</clipPath>
</defs>
</svg>
