<svg width="22" height="12" viewBox="0 0 22 12" fill="none" xmlns="http://www.w3.org/2000/svg">
<path d="M3.66388 11.1865C2.61149 11.1865 1.77347 10.9332 1.14983 10.4265C0.526195 9.90677 0.214376 9.10773 0.214376 8.02935C0.214376 7.01594 0.513203 6.23639 1.11086 5.69071C1.70851 5.14502 2.55952 4.87218 3.66388 4.87218H6.93799V4.17059C6.93799 3.46899 6.74959 2.9363 6.37281 2.57251C5.99603 2.19573 5.39838 2.00734 4.57985 2.00734C3.81329 2.00734 3.19615 2.17624 2.72842 2.51404C2.26069 2.83886 1.87741 3.22214 1.57859 3.66388L0 2.28018C0.220872 1.94238 0.474226 1.63705 0.76006 1.36421C1.05889 1.07838 1.39669 0.838015 1.77347 0.643128C2.16325 0.435248 2.5985 0.279338 3.07922 0.175399C3.57293 0.0584662 4.12511 0 4.73576 0C6.28187 0 7.45119 0.350797 8.24373 1.05239C9.03627 1.75398 9.43254 2.7609 9.43254 4.07314V10.9916H6.93799V6.48974H4.50189C3.34556 6.48974 2.7674 6.95098 2.7674 7.87344V8.24373C2.7674 8.69847 2.89732 9.05576 3.15717 9.31561C3.41702 9.57546 3.77432 9.70538 4.22905 9.70538C4.43693 9.70538 4.61883 9.68589 4.77474 9.64692L4.95014 11.0501C4.8462 11.0891 4.6578 11.1216 4.38496 11.1475C4.11212 11.1735 3.87176 11.1865 3.66388 11.1865Z" fill="#E93268"/>
<path d="M16.3851 11.2255C15.6446 11.2255 14.9755 11.0956 14.3778 10.8357C13.7931 10.5759 13.2994 10.2056 12.8967 9.72487C12.4939 9.24415 12.1821 8.65949 11.9612 7.97089C11.7533 7.26929 11.6494 6.48325 11.6494 5.61275C11.6494 4.75525 11.7663 3.9822 12.0002 3.29359C12.247 2.60499 12.5913 2.02033 13.0331 1.53961C13.4878 1.04589 14.0335 0.669113 14.6701 0.409263C15.3198 0.136421 16.0408 0 16.8334 0C17.5869 0 18.2691 0.110436 18.8797 0.331308C19.4903 0.539188 20.01 0.844511 20.4388 1.24728C20.8675 1.63705 21.1989 2.11777 21.4327 2.68944C21.6666 3.24812 21.7835 3.87826 21.7835 4.57985V10.9916H19.289V4.73576C19.289 3.87826 19.0681 3.20914 18.6263 2.72842C18.1976 2.2477 17.5934 2.00734 16.8139 2.00734C16.0084 2.00734 15.3782 2.26719 14.9235 2.78689C14.4817 3.29359 14.2609 3.99519 14.2609 4.89167V6.31435C14.2609 8.25023 15.0729 9.21817 16.697 9.21817C16.8399 9.21817 16.9633 9.21817 17.0672 9.21817C17.1842 9.20517 17.3011 9.18568 17.418 9.1597L17.7104 11.1086C17.5025 11.1605 17.2686 11.193 17.0088 11.206C16.7619 11.219 16.554 11.2255 16.3851 11.2255Z" fill="#E93268"/>
</svg>
