<svg width="44" height="44" viewBox="0 0 44 44" fill="none" xmlns="http://www.w3.org/2000/svg">
<g clip-path="url(#clip0_40024170_28955)">
<g filter="url(#filter0_di_40024170_28955)">
<path d="M37.4869 13.2756C35.5098 6.56735 29.4375 2 22.5178 2C15.5981 2 9.52574 6.56735 7.54869 13.2756C6.8426 15.8448 6.8426 18.5566 7.40748 21.2685C8.396 24.5513 11.2204 30.2605 18.5637 39.1097C18.8461 39.5379 19.2698 39.9661 19.5522 40.2516C19.9759 40.8225 20.5407 41.2507 21.1056 41.6789C21.9529 42.107 22.9414 42.107 23.7887 41.6789C24.3536 41.2507 24.9185 40.8225 25.3421 40.2516C25.6246 39.8234 26.0482 39.3952 26.3307 39.1097C33.674 30.4032 36.4984 24.5513 37.3457 21.2685C38.193 18.5566 38.193 15.8448 37.4869 13.2756Z" fill="url(#paint0_radial_40024170_28955)"/>
<g filter="url(#filter1_ddi_40024170_28955)">
<circle cx="22.5" cy="17.5" r="11.5" fill="#D9D9D9"/>
<circle cx="22.5" cy="17.5" r="11.5" fill="url(#paint1_radial_40024170_28955)"/>
</g>
</g>
<g filter="url(#filter2_di_40024170_28955)">
<path d="M27.8456 14.8507C27.6498 14.5203 27.29 14.315 26.8998 14.3123H23.6011V11.0835C23.6053 10.4894 23.1164 10.0041 22.5094 10C22.1108 9.99731 21.7414 10.2067 21.5455 10.5452L17.1469 18.0794C16.951 18.4125 16.951 18.8231 17.1469 19.1562C17.3441 19.4906 17.7094 19.6959 18.1038 19.6945H21.4025V22.9233C21.3844 23.4236 21.7219 23.8695 22.2164 24H22.5025C22.8969 24.0014 23.2622 23.7961 23.4594 23.4616L27.8581 15.9274C28.0512 15.5929 28.047 15.1824 27.847 14.8507H27.8456Z" fill="url(#paint2_linear_40024170_28955)"/>
</g>
</g>
<defs>
<filter id="filter0_di_40024170_28955" x="3" y="2" width="39" height="48" filterUnits="userSpaceOnUse" color-interpolation-filters="sRGB">
<feFlood flood-opacity="0" result="BackgroundImageFix"/>
<feColorMatrix in="SourceAlpha" type="matrix" values="0 0 0 0 0 0 0 0 0 0 0 0 0 0 0 0 0 0 127 0" result="hardAlpha"/>
<feOffset dy="4"/>
<feGaussianBlur stdDeviation="2"/>
<feComposite in2="hardAlpha" operator="out"/>
<feColorMatrix type="matrix" values="0 0 0 0 0.934965 0 0 0 0 0.694218 0 0 0 0 0.890427 0 0 0 0.2 0"/>
<feBlend mode="normal" in2="BackgroundImageFix" result="effect1_dropShadow_40024170_28955"/>
<feBlend mode="normal" in="SourceGraphic" in2="effect1_dropShadow_40024170_28955" result="shape"/>
<feColorMatrix in="SourceAlpha" type="matrix" values="0 0 0 0 0 0 0 0 0 0 0 0 0 0 0 0 0 0 127 0" result="hardAlpha"/>
<feOffset dy="1"/>
<feGaussianBlur stdDeviation="2"/>
<feComposite in2="hardAlpha" operator="arithmetic" k2="-1" k3="1"/>
<feColorMatrix type="matrix" values="0 0 0 0 1 0 0 0 0 1 0 0 0 0 1 0 0 0 0.5 0"/>
<feBlend mode="normal" in2="shape" result="effect2_innerShadow_40024170_28955"/>
</filter>
<filter id="filter1_ddi_40024170_28955" x="9" y="5" width="27" height="27" filterUnits="userSpaceOnUse" color-interpolation-filters="sRGB">
<feFlood flood-opacity="0" result="BackgroundImageFix"/>
<feColorMatrix in="SourceAlpha" type="matrix" values="0 0 0 0 0 0 0 0 0 0 0 0 0 0 0 0 0 0 127 0" result="hardAlpha"/>
<feOffset dy="1"/>
<feGaussianBlur stdDeviation="1"/>
<feComposite in2="hardAlpha" operator="out"/>
<feColorMatrix type="matrix" values="0 0 0 0 0.443641 0 0 0 0 0.112793 0 0 0 0 0.380331 0 0 0 0.25 0"/>
<feBlend mode="normal" in2="BackgroundImageFix" result="effect1_dropShadow_40024170_28955"/>
<feColorMatrix in="SourceAlpha" type="matrix" values="0 0 0 0 0 0 0 0 0 0 0 0 0 0 0 0 0 0 127 0" result="hardAlpha"/>
<feOffset/>
<feGaussianBlur stdDeviation="0.5"/>
<feComposite in2="hardAlpha" operator="out"/>
<feColorMatrix type="matrix" values="0 0 0 0 0.511362 0 0 0 0 0 0 0 0 0 0.413509 0 0 0 0.5 0"/>
<feBlend mode="normal" in2="effect1_dropShadow_40024170_28955" result="effect2_dropShadow_40024170_28955"/>
<feBlend mode="normal" in="SourceGraphic" in2="effect2_dropShadow_40024170_28955" result="shape"/>
<feColorMatrix in="SourceAlpha" type="matrix" values="0 0 0 0 0 0 0 0 0 0 0 0 0 0 0 0 0 0 127 0" result="hardAlpha"/>
<feOffset/>
<feGaussianBlur stdDeviation="1"/>
<feComposite in2="hardAlpha" operator="arithmetic" k2="-1" k3="1"/>
<feColorMatrix type="matrix" values="0 0 0 0 1 0 0 0 0 1 0 0 0 0 1 0 0 0 1 0"/>
<feBlend mode="normal" in2="shape" result="effect3_innerShadow_40024170_28955"/>
</filter>
<filter id="filter2_di_40024170_28955" x="13" y="7" width="19" height="22" filterUnits="userSpaceOnUse" color-interpolation-filters="sRGB">
<feFlood flood-opacity="0" result="BackgroundImageFix"/>
<feColorMatrix in="SourceAlpha" type="matrix" values="0 0 0 0 0 0 0 0 0 0 0 0 0 0 0 0 0 0 127 0" result="hardAlpha"/>
<feOffset dy="1"/>
<feGaussianBlur stdDeviation="2"/>
<feComposite in2="hardAlpha" operator="out"/>
<feColorMatrix type="matrix" values="0 0 0 0 0.901961 0 0 0 0 0.705882 0 0 0 0 0.278431 0 0 0 0.3 0"/>
<feBlend mode="normal" in2="BackgroundImageFix" result="effect1_dropShadow_40024170_28955"/>
<feBlend mode="normal" in="SourceGraphic" in2="effect1_dropShadow_40024170_28955" result="shape"/>
<feColorMatrix in="SourceAlpha" type="matrix" values="0 0 0 0 0 0 0 0 0 0 0 0 0 0 0 0 0 0 127 0" result="hardAlpha"/>
<feOffset/>
<feGaussianBlur stdDeviation="1"/>
<feComposite in2="hardAlpha" operator="arithmetic" k2="-1" k3="1"/>
<feColorMatrix type="matrix" values="0 0 0 0 1 0 0 0 0 1 0 0 0 0 1 0 0 0 0.7 0"/>
<feBlend mode="normal" in2="shape" result="effect2_innerShadow_40024170_28955"/>
</filter>
<radialGradient id="paint0_radial_40024170_28955" cx="0" cy="0" r="1" gradientUnits="userSpaceOnUse" gradientTransform="translate(22.3333 1.19355) rotate(90) scale(30.3226 45.1812)">
<stop stop-color="#FB8EE7"/>
<stop offset="1" stop-color="#A80689"/>
</radialGradient>
<radialGradient id="paint1_radial_40024170_28955" cx="0" cy="0" r="1" gradientUnits="userSpaceOnUse" gradientTransform="translate(23.65 18.65) rotate(90) scale(118.45 479.266)">
<stop stop-color="white"/>
<stop offset="1"/>
</radialGradient>
<linearGradient id="paint2_linear_40024170_28955" x1="22.4983" y1="18.2237" x2="21.8734" y2="5.60216" gradientUnits="userSpaceOnUse">
<stop offset="0.002" stop-color="#E6B447"/>
<stop offset="1" stop-color="#FA66DD"/>
</linearGradient>
<clipPath id="clip0_40024170_28955">
<rect width="44" height="44" fill="white"/>
</clipPath>
</defs>
</svg>
